<svg xmlns="http://www.w3.org/2000/svg" viewBox="0 0 353.872 150.415"><defs><style>.cls-1{fill:#184e77;}</style></defs><g id="Layer_2" data-name="Layer 2"><g id="icon"><g id="Me"><path id="Shirt" class="cls-1" d="M353.872,67.161c-49,51.215-109.534,82.431-175.892,83.242C113.38,151.078,50.537,124.592,0,75.134l47.132-42.3c28.125-12.567,73.609-20.675,73.609-20.675L134.034,0s-1.538,10.54.33,17.432,15.381,19.73,15.381,19.73L147.438,55l.439,2.3,1.868-1.081,7.031-17.432a161.315,161.315,0,0,0,32.19,2.838c18.457-.27,29.114-17.838,30.762-24.729s-.549-15.541-.549-15.541L233.9,12.027s36.255,11.081,63.721,21.081Z"/></g></g></g></svg>