<svg xmlns="http://www.w3.org/2000/svg" viewBox="0 0 509.285 443.412"><defs><style>.cls-1{fill:#f2a519;}.cls-2{fill:#fff;}.cls-3{fill:#e6e6e6;}.cls-4{fill:#6c63ff;}.cls-5{fill:#2f2e41;}.cls-6{fill:#ffb6b6;}.cls-7{fill:#cacaca;}.cls-8{fill:#3f3d56;}</style></defs><g id="back-clip"><path class="cls-1" d="M5,279c3.665,12.773,9.491,22.141,15,31,4.3,6.911,15.831,24.316,53,54,37.316,29.8,68.716,46.617,76.936,50.936,22.543,11.844,40.781,21.245,67.745,26.553a198.975,198.975,0,0,0,36.766,3.745c54.367.292,94.688-23.726,106.553-30.979,32.135-19.643,51.2-43.168,59.76-53.913,13.956-17.527,26.084-37.877,30.963-46.342,17.581-30.5,17.724-39.685,32.937-53.617,10.226-9.366,16.96-11.44,22.324-22.173,3.841-7.686,3.713-13.275,3.728-35.272.029-45.033.576-40.162-.01-55.151-.9-23.1-1.355-34.65-2.3-38.3C501.5,82.772,479.6,67.827,446.362,45.149,423.144,29.305,402.706,15.359,371.3,7.617,345.382,1.229,322.424,1.635,301.766,2a316.123,316.123,0,0,0-42.213,3.4A391.62,391.62,0,0,0,209.17,17.319c-1.109.338-42.565,12.82-67.4,26.894a265.9,265.9,0,0,0-62.979,49.7c-28.009,29.966-41.564,58.359-50.723,77.957C10,210.526-5.271,243.2,5,279Z" transform="translate(-1.687 -1.824)"/></g><g id="main"><path id="background" class="cls-1" d="M456.032,233.074a206.828,206.828,0,0,1-57.96,143.79q-3.368,3.518-6.918,6.865-5.409,5.13-11.182,9.864A207.858,207.858,0,0,1,252.4,440.777q-2.331.053-4.679.053c-37.191,0-83.969-19.812-126.42-47.237q-5.268-3.4-10.443-6.964-2.418-1.649-4.813-3.345a428.018,428.018,0,0,1-46.509-37.891,301.2,301.2,0,0,1-26.825-28.606C.091,276.661-7.1,240.506,39.4,233.074q8.258-1.316,16.03-2.813,11.257-2.157,21.548-4.66,13.86-3.36,26.045-7.286,4.1-1.316,8.009-2.684c38.546-13.5,64.345-31.109,81.906-50.213q4.467-4.85,8.238-9.818a138.025,138.025,0,0,0,10.454-15.858,148.771,148.771,0,0,0,10.794-24l.159-.456c13.972-40.2,9.721-77.48,25.136-89.958C313.611-28.023,395.645,47.948,434.15,137.537q2.91,6.772,5.476,13.625,1.152,3.061,2.222,6.134,2.814,8.008,5.107,16.057.88,3.07,1.677,6.134c.569,2.205,1.114,4.4,1.618,6.6A208.851,208.851,0,0,1,456.032,233.074Z" transform="translate(-1.687 -1.824)"/><g id="swaches"><path class="cls-2" d="M256.806,112.913H243.754a1.524,1.524,0,0,0-1.524,1.521v13.022a1.519,1.519,0,0,0,1.522,1.515h13.054a1.523,1.523,0,0,0,1.525-1.515V114.434A1.528,1.528,0,0,0,256.806,112.913Z" transform="translate(-1.687 -1.824)"/><path class="cls-3" d="M256.806,135.1H243.754a1.522,1.522,0,0,0-1.524,1.52v13.022a1.518,1.518,0,0,0,1.521,1.515h13.055a1.523,1.523,0,0,0,1.525-1.515V136.625A1.527,1.527,0,0,0,256.806,135.1Z" transform="translate(-1.687 -1.824)"/><path class="cls-3" d="M256.806,157.3H243.754a1.522,1.522,0,0,0-1.524,1.52v13.017a1.519,1.519,0,0,0,1.518,1.52h13.058a1.524,1.524,0,0,0,1.525-1.52V158.816A1.527,1.527,0,0,0,256.806,157.3Z" transform="translate(-1.687 -1.824)"/><path class="cls-3" d="M258.307,180.739a1.533,1.533,0,0,0-1.5-1.252H243.754a1.524,1.524,0,0,0-1.524,1.521v13.016a1.518,1.518,0,0,0,1.518,1.52h13.058a1.523,1.523,0,0,0,1.525-1.52V181.008A1.34,1.34,0,0,0,258.307,180.739Z" transform="translate(-1.687 -1.824)"/><path class="cls-3" d="M257.4,201.8a1.558,1.558,0,0,0-.592-.117H243.754a1.52,1.52,0,0,0-1.524,1.515v13.022a1.516,1.516,0,0,0,1.511,1.521h13.065a1.524,1.524,0,0,0,1.525-1.521V203.2A1.53,1.53,0,0,0,257.4,201.8Z" transform="translate(-1.687 -1.824)"/><path class="cls-3" d="M284.223,112.913H271.171a1.524,1.524,0,0,0-1.524,1.521v13.022a1.519,1.519,0,0,0,1.522,1.515h13.054a1.523,1.523,0,0,0,1.525-1.515V114.434A1.528,1.528,0,0,0,284.223,112.913Z" transform="translate(-1.687 -1.824)"/><path class="cls-4" d="M284.223,135.1H271.171a1.523,1.523,0,0,0-1.524,1.52v13.022a1.518,1.518,0,0,0,1.522,1.515h13.054a1.523,1.523,0,0,0,1.525-1.515V136.625A1.527,1.527,0,0,0,284.223,135.1Z" transform="translate(-1.687 -1.824)"/><path class="cls-4" d="M284.223,157.3H271.171a1.523,1.523,0,0,0-1.524,1.52v13.017a1.519,1.519,0,0,0,1.518,1.52h13.058a1.524,1.524,0,0,0,1.525-1.52V158.816A1.527,1.527,0,0,0,284.223,157.3Z" transform="translate(-1.687 -1.824)"/><path class="cls-4" d="M284.223,179.487H271.171a1.52,1.52,0,0,0-1.442,1.041,1.45,1.45,0,0,0-.082.48v13.016a1.518,1.518,0,0,0,1.518,1.52h13.058a1.523,1.523,0,0,0,1.525-1.52V181.008A1.528,1.528,0,0,0,284.223,179.487Z" transform="translate(-1.687 -1.824)"/><path class="cls-3" d="M284.223,201.678H271.171a1.52,1.52,0,0,0-1.524,1.515v13.022a1.52,1.52,0,0,0,1.518,1.521h13.058a1.524,1.524,0,0,0,1.525-1.521V203.2A1.524,1.524,0,0,0,284.223,201.678Z" transform="translate(-1.687 -1.824)"/><path class="cls-4" d="M311.64,112.913H298.589a1.524,1.524,0,0,0-1.525,1.521v13.022a1.519,1.519,0,0,0,1.522,1.515H311.64a1.523,1.523,0,0,0,1.525-1.515V114.434A1.528,1.528,0,0,0,311.64,112.913Z" transform="translate(-1.687 -1.824)"/><path class="cls-4" d="M311.64,135.1H298.589a1.523,1.523,0,0,0-1.525,1.52v13.022a1.518,1.518,0,0,0,1.522,1.515H311.64a1.523,1.523,0,0,0,1.525-1.515V136.625A1.527,1.527,0,0,0,311.64,135.1Z" transform="translate(-1.687 -1.824)"/><path class="cls-3" d="M311.64,157.3H298.589a1.523,1.523,0,0,0-1.525,1.52v13.017a1.519,1.519,0,0,0,1.518,1.52H311.64a1.524,1.524,0,0,0,1.525-1.52V158.816A1.527,1.527,0,0,0,311.64,157.3Z" transform="translate(-1.687 -1.824)"/><path class="cls-4" d="M311.64,179.487H298.589a1.524,1.524,0,0,0-1.525,1.521v13.016a1.518,1.518,0,0,0,1.518,1.52H311.64a1.522,1.522,0,0,0,1.525-1.52V181.008A1.528,1.528,0,0,0,311.64,179.487Z" transform="translate(-1.687 -1.824)"/><path class="cls-4" d="M311.64,201.678H298.589a1.521,1.521,0,0,0-1.525,1.515v13.022a1.52,1.52,0,0,0,1.519,1.521H311.64a1.524,1.524,0,0,0,1.525-1.521V203.2A1.524,1.524,0,0,0,311.64,201.678Z" transform="translate(-1.687 -1.824)"/><path class="cls-4" d="M339.057,112.913H326.006a1.524,1.524,0,0,0-1.525,1.521v13.022A1.519,1.519,0,0,0,326,128.971h13.054a1.523,1.523,0,0,0,1.525-1.515V114.434A1.528,1.528,0,0,0,339.057,112.913Z" transform="translate(-1.687 -1.824)"/><path class="cls-2" d="M339.057,135.1H326.006a1.524,1.524,0,0,0-1.525,1.52v13.022A1.518,1.518,0,0,0,326,151.162h13.054a1.523,1.523,0,0,0,1.525-1.515V136.625A1.526,1.526,0,0,0,339.057,135.1Z" transform="translate(-1.687 -1.824)"/><path class="cls-2" d="M339.057,157.3H326.006a1.524,1.524,0,0,0-1.525,1.52v13.017a1.52,1.52,0,0,0,1.519,1.52h13.057a1.523,1.523,0,0,0,1.525-1.52V158.816A1.527,1.527,0,0,0,339.057,157.3Z" transform="translate(-1.687 -1.824)"/><path class="cls-3" d="M339.057,179.487H326.006a1.524,1.524,0,0,0-1.525,1.521v13.016a1.518,1.518,0,0,0,1.519,1.52h13.057a1.522,1.522,0,0,0,1.525-1.52V181.008A1.528,1.528,0,0,0,339.057,179.487Z" transform="translate(-1.687 -1.824)"/><path class="cls-4" d="M339.057,201.678H326.006a1.521,1.521,0,0,0-1.525,1.515v13.022A1.521,1.521,0,0,0,326,217.736h13.057a1.524,1.524,0,0,0,1.525-1.521V203.2A1.524,1.524,0,0,0,339.057,201.678Z" transform="translate(-1.687 -1.824)"/><path class="cls-2" d="M366.475,112.913H353.417a1.523,1.523,0,0,0-1.519,1.521v13.022a1.518,1.518,0,0,0,1.519,1.515h13.058A1.522,1.522,0,0,0,368,127.456V114.434A1.527,1.527,0,0,0,366.475,112.913Z" transform="translate(-1.687 -1.824)"/><path class="cls-2" d="M366.475,135.1H353.417a1.522,1.522,0,0,0-1.519,1.52v13.022a1.517,1.517,0,0,0,1.519,1.515h13.058A1.522,1.522,0,0,0,368,149.647V136.625A1.525,1.525,0,0,0,366.475,135.1Z" transform="translate(-1.687 -1.824)"/><path class="cls-2" d="M366.475,157.3H353.417a1.522,1.522,0,0,0-1.519,1.52v13.017a1.518,1.518,0,0,0,1.516,1.52h13.061a1.523,1.523,0,0,0,1.524-1.52V158.816A1.526,1.526,0,0,0,366.475,157.3Z" transform="translate(-1.687 -1.824)"/><path class="cls-4" d="M366.475,179.487H353.417a1.523,1.523,0,0,0-1.519,1.521v13.016a1.518,1.518,0,0,0,1.516,1.52h13.061a1.522,1.522,0,0,0,1.524-1.52V181.008A1.527,1.527,0,0,0,366.475,179.487Z" transform="translate(-1.687 -1.824)"/><path class="cls-3" d="M366.475,201.678H353.417A1.519,1.519,0,0,0,351.9,203.2v13.019a1.519,1.519,0,0,0,1.516,1.521h13.061A1.524,1.524,0,0,0,368,216.215V203.2A1.524,1.524,0,0,0,366.475,201.678Z" transform="translate(-1.687 -1.824)"/><path class="cls-2" d="M393.892,112.913H380.834a1.523,1.523,0,0,0-1.519,1.521v13.022a1.518,1.518,0,0,0,1.519,1.515h13.058a1.522,1.522,0,0,0,1.524-1.515V114.434A1.527,1.527,0,0,0,393.892,112.913Z" transform="translate(-1.687 -1.824)"/><path class="cls-2" d="M393.892,135.1H380.834a1.522,1.522,0,0,0-1.519,1.52v13.022a1.517,1.517,0,0,0,1.519,1.515h13.058a1.522,1.522,0,0,0,1.524-1.515V136.625A1.525,1.525,0,0,0,393.892,135.1Z" transform="translate(-1.687 -1.824)"/><path class="cls-4" d="M393.892,157.3H380.834a1.522,1.522,0,0,0-1.519,1.52v13.017a1.518,1.518,0,0,0,1.516,1.52h13.061a1.523,1.523,0,0,0,1.524-1.52V158.816A1.526,1.526,0,0,0,393.892,157.3Z" transform="translate(-1.687 -1.824)"/><path class="cls-3" d="M393.892,179.487H380.834a1.523,1.523,0,0,0-1.519,1.521v13.016a1.518,1.518,0,0,0,1.516,1.52h13.061a1.522,1.522,0,0,0,1.524-1.52V181.008A1.527,1.527,0,0,0,393.892,179.487Z" transform="translate(-1.687 -1.824)"/><path class="cls-2" d="M393.892,201.678H380.834a1.519,1.519,0,0,0-1.519,1.518v13.019a1.519,1.519,0,0,0,1.516,1.521h13.061a1.524,1.524,0,0,0,1.524-1.521V203.2A1.524,1.524,0,0,0,393.892,201.678Z" transform="translate(-1.687 -1.824)"/><path class="cls-4" d="M421.309,112.913H408.251a1.523,1.523,0,0,0-1.519,1.521v13.022a1.519,1.519,0,0,0,1.519,1.515h13.058a1.522,1.522,0,0,0,1.524-1.515V114.434A1.527,1.527,0,0,0,421.309,112.913Z" transform="translate(-1.687 -1.824)"/><path class="cls-4" d="M421.309,135.1H408.251a1.522,1.522,0,0,0-1.519,1.52v13.022a1.517,1.517,0,0,0,1.519,1.515h13.058a1.522,1.522,0,0,0,1.524-1.515V136.625A1.525,1.525,0,0,0,421.309,135.1Z" transform="translate(-1.687 -1.824)"/><path class="cls-3" d="M421.309,157.3H408.251a1.522,1.522,0,0,0-1.519,1.52v13.017a1.518,1.518,0,0,0,1.516,1.52h13.061a1.523,1.523,0,0,0,1.524-1.52V158.816A1.526,1.526,0,0,0,421.309,157.3Z" transform="translate(-1.687 -1.824)"/><path class="cls-2" d="M421.309,179.487H408.251a1.523,1.523,0,0,0-1.519,1.521v13.016a1.518,1.518,0,0,0,1.516,1.52h13.061a1.521,1.521,0,0,0,1.524-1.52V181.008A1.527,1.527,0,0,0,421.309,179.487Z" transform="translate(-1.687 -1.824)"/><path class="cls-4" d="M421.309,201.678H408.251a1.519,1.519,0,0,0-1.519,1.518v13.019a1.519,1.519,0,0,0,1.516,1.521h13.061a1.523,1.523,0,0,0,1.524-1.521V203.2A1.523,1.523,0,0,0,421.309,201.678Z" transform="translate(-1.687 -1.824)"/><path class="cls-4" d="M448.726,112.913H435.668a1.523,1.523,0,0,0-1.519,1.521v13.022a1.519,1.519,0,0,0,1.519,1.515h13.058a1.522,1.522,0,0,0,1.524-1.515V114.434A1.527,1.527,0,0,0,448.726,112.913Z" transform="translate(-1.687 -1.824)"/><path class="cls-4" d="M448.726,135.1H435.668a1.522,1.522,0,0,0-1.519,1.52v13.022a1.517,1.517,0,0,0,1.519,1.515h13.058a1.522,1.522,0,0,0,1.524-1.515V136.625A1.525,1.525,0,0,0,448.726,135.1Z" transform="translate(-1.687 -1.824)"/><path class="cls-3" d="M448.726,157.3H435.668a1.522,1.522,0,0,0-1.519,1.52v13.017a1.518,1.518,0,0,0,1.516,1.52h13.061a1.522,1.522,0,0,0,1.524-1.52V158.816A1.526,1.526,0,0,0,448.726,157.3Z" transform="translate(-1.687 -1.824)"/><path class="cls-4" d="M448.726,179.487H435.668a1.523,1.523,0,0,0-1.519,1.521v13.016a1.518,1.518,0,0,0,1.516,1.52h13.061a1.521,1.521,0,0,0,1.524-1.52V181.008A1.527,1.527,0,0,0,448.726,179.487Z" transform="translate(-1.687 -1.824)"/><path class="cls-4" d="M448.726,201.678H435.668a1.52,1.52,0,0,0-1.519,1.518v13.019a1.519,1.519,0,0,0,1.516,1.521h13.061a1.523,1.523,0,0,0,1.524-1.521V203.2A1.523,1.523,0,0,0,448.726,201.678Z" transform="translate(-1.687 -1.824)"/><path class="cls-3" d="M476.143,112.913H463.085a1.521,1.521,0,0,0-1.518,1.521v13.022a1.518,1.518,0,0,0,1.518,1.515h13.058a1.522,1.522,0,0,0,1.524-1.515V114.434A1.527,1.527,0,0,0,476.143,112.913Z" transform="translate(-1.687 -1.824)"/><path class="cls-4" d="M476.143,135.1H463.085a1.521,1.521,0,0,0-1.518,1.52v13.022a1.517,1.517,0,0,0,1.518,1.515h13.058a1.522,1.522,0,0,0,1.524-1.515V136.625A1.525,1.525,0,0,0,476.143,135.1Z" transform="translate(-1.687 -1.824)"/><path class="cls-4" d="M476.143,157.3H463.085a1.521,1.521,0,0,0-1.518,1.52v13.017a1.517,1.517,0,0,0,1.515,1.52h13.061a1.522,1.522,0,0,0,1.524-1.52V158.816A1.526,1.526,0,0,0,476.143,157.3Z" transform="translate(-1.687 -1.824)"/><path class="cls-4" d="M476.143,179.487H463.085a1.521,1.521,0,0,0-1.518,1.521v13.016a1.517,1.517,0,0,0,1.515,1.52h13.061a1.521,1.521,0,0,0,1.524-1.52V181.008A1.527,1.527,0,0,0,476.143,179.487Z" transform="translate(-1.687 -1.824)"/><path class="cls-3" d="M476.143,201.678H463.085a1.518,1.518,0,0,0-1.518,1.518v13.019a1.518,1.518,0,0,0,1.516,1.521h13.06a1.523,1.523,0,0,0,1.524-1.521V203.2A1.523,1.523,0,0,0,476.143,201.678Z" transform="translate(-1.687 -1.824)"/><path class="cls-3" d="M503.56,112.913H490.5a1.522,1.522,0,0,0-1.518,1.521v13.022a1.518,1.518,0,0,0,1.518,1.515H503.56a1.523,1.523,0,0,0,1.525-1.515V114.434A1.528,1.528,0,0,0,503.56,112.913Z" transform="translate(-1.687 -1.824)"/><path class="cls-3" d="M503.56,135.1H490.5a1.521,1.521,0,0,0-1.518,1.52v13.022a1.517,1.517,0,0,0,1.518,1.515H503.56a1.523,1.523,0,0,0,1.525-1.515V136.625A1.527,1.527,0,0,0,503.56,135.1Z" transform="translate(-1.687 -1.824)"/><path class="cls-4" d="M503.56,157.3H490.5a1.521,1.521,0,0,0-1.518,1.52v13.017a1.517,1.517,0,0,0,1.516,1.52h13.06a1.524,1.524,0,0,0,1.525-1.52V158.816A1.527,1.527,0,0,0,503.56,157.3Z" transform="translate(-1.687 -1.824)"/><path class="cls-3" d="M503.56,179.487H490.5a1.522,1.522,0,0,0-1.518,1.521v13.016a1.517,1.517,0,0,0,1.516,1.52h13.06a1.523,1.523,0,0,0,1.525-1.52V181.008A1.528,1.528,0,0,0,503.56,179.487Z" transform="translate(-1.687 -1.824)"/><path class="cls-3" d="M503.56,201.678H490.5a1.518,1.518,0,0,0-1.518,1.518v13.019a1.518,1.518,0,0,0,1.516,1.521h13.06a1.524,1.524,0,0,0,1.525-1.521V203.2A1.524,1.524,0,0,0,503.56,201.678Z" transform="translate(-1.687 -1.824)"/></g><g id="me"><path class="cls-5" d="M252.4,440.777q-2.331.053-4.679.053c-37.191,0-83.969-19.812-126.42-47.236q-5.268-3.4-10.443-6.965l3.026-18.361,91.591-12.128L251.441,391.2Z" transform="translate(-1.687 -1.824)"/><polygon class="cls-5" points="201.761 391.77 201.398 391.77 201.708 391.729 201.761 391.77"/><ellipse id="b6132315-04e2-4cdb-a713-107c9cd58b0b" class="cls-6" cx="170.521" cy="109.149" rx="40.06" ry="39.951"/><path id="f4304bdd-ba2d-4fff-b404-410205410c5d" class="cls-5" d="M207.289,81.682s10.477-19.975-12.573-21.791c0,0-19.651-17.778-39.681-3.25,0,0-10.926,0-16.9,12.33,0,0-8.593-3.25-10.481,5.448,0,0-6.288,18.159,0,34.5s8.376,18.16,8.376,18.16S125.7,92.816,150.847,91s53.29-17.489,55.386,2.486,5.249,24.9,5.249,24.9S231.388,89.854,207.289,81.682Z" transform="translate(-1.687 -1.824)"/><path class="cls-7" d="M275.833,209.432l-.129.679-1.448,7.625L264.247,270.48l-.592,3.1-1.243,6.567-1.7,8.958-3.77,19.853-1.079,5.689-.4,2.134-.141.749-1.12,5.888-.34,1.778-2.732,20.191-2.387,17.6,7.986,7.964-4.761,4.748-3.125,17.852.006.041H121.3q-7.74-5-15.256-10.309l1.049-7.835s3.612-13.993,2.093-15.666-4.831-4.66-4.831-4.66l4.18-9.73.581-1.351-.973-20.133-.024-.486-.322-6.637-.041-.853-.065-1.281-1.237-25.542-.023-.421-.376-7.742-.352-7.362-.152-3.1-1.507-31.068-1.02-21.1-.891-18.367,3.582-1.211L144.03,185.75,159.9,165.172l33.035.246,16.171.123L236.091,190.5l6.139,2.924.047.023,4.4,2.1,11.164,5.316,11.8,5.625,6.057,2.883Z" transform="translate(-1.687 -1.824)"/><path class="cls-6" d="M164.171,333.657A17.772,17.772,0,0,1,141.2,323.541a17.57,17.57,0,0,1-.869-3l-62.48-8.84,21.72-24.5,56,12.151a17.8,17.8,0,0,1,8.6,34.307Z" transform="translate(-1.687 -1.824)"/><path class="cls-7" d="M136.314,289.11a7.928,7.928,0,0,0-4.626-2.847l-25.635-5.316-2.632-.544a11.054,11.054,0,0,1-8.262-14.3l8.883-26.694,5.764-17.32a24.408,24.408,0,0,0,1.225-6.461,25.136,25.136,0,0,0-34.054-24.87c-.147.053-.3.111-.446.17a24.922,24.922,0,0,0-14.84,16.613l-6.262,22.717L42.512,277.094a33.827,33.827,0,0,0,28.707,42.5l36.922,4.316,17.085,2a7.912,7.912,0,0,0,8.7-6.275,2.939,2.939,0,0,0,.064-.321l.411-2.527,3.477-21.273.035-.216A7.865,7.865,0,0,0,136.314,289.11Z" transform="translate(-1.687 -1.824)"/><path class="cls-6" d="M203.968,334.339A17.726,17.726,0,0,0,225.718,318l60.6-17.539-24.967-21.2-53.724,19.905a17.8,17.8,0,0,0-3.664,35.174Z" transform="translate(-1.687 -1.824)"/><path class="cls-4" d="M220.788,108.791h-2.932c0-22.1-21.935-36.588-44.063-36.6a48.515,48.515,0,0,0-9.587.93c-3.553.708-7.241,1.556-10.865,2.661-14.289,4.368-27.54,12.812-27.54,33.009a45.84,45.84,0,0,0,1.489,11.625l-2.838.737a48.975,48.975,0,0,1-1.583-12.362c0-17.648,7.265-29.77,19.813-37,6.6-3.8,14.646-6.251,23.869-7.444A57.124,57.124,0,0,1,178.132,64C203.579,65.823,220.788,85.284,220.788,108.791Z" transform="translate(-1.687 -1.824)"/><path class="cls-4" d="M225.672,110.411l-1.155-8.514a9.178,9.178,0,0,0-2.932-5.59,9.288,9.288,0,0,0-7.769-2.339l-1.835.251a3.849,3.849,0,0,0-3.307,4.327l2.668,19.613a3.85,3.85,0,0,0,3.107,3.257,3.659,3.659,0,0,0,.716.07,3.878,3.878,0,0,0,.516-.035l2.052-.275a9.263,9.263,0,0,0,6.3-3.76c.158-.222.311-.45.451-.684A9.773,9.773,0,0,0,225.672,110.411Z" transform="translate(-1.687 -1.824)"/><path class="cls-2" d="M210.8,94.576A3.774,3.774,0,0,0,209.43,95.7a3.82,3.82,0,0,0-.756,2.848l2.668,19.613a3.85,3.85,0,0,0,3.107,3.257Z" transform="translate(-1.687 -1.824)"/><path class="cls-8" d="M225.672,110.411l-1.155-8.514a9.178,9.178,0,0,0-2.932-5.59l2.656,19.513a3.642,3.642,0,0,0,.24.912A9.773,9.773,0,0,0,225.672,110.411Z" transform="translate(-1.687 -1.824)"/><ellipse class="cls-8" cx="215.991" cy="112.489" rx="1.466" ry="4.093" transform="translate(-14.886 28.339) rotate(-7.752)"/><ellipse class="cls-8" cx="214.232" cy="101.964" rx="1.466" ry="4.093" transform="translate(-13.483 28.005) rotate(-7.752)"/><ellipse class="cls-8" cx="225.372" cy="106.057" rx="1.466" ry="4.093" transform="translate(-13.933 29.545) rotate(-7.752)"/><path class="cls-8" d="M173.793,72.191a48.515,48.515,0,0,0-9.587.93c-3.553.708-7.241,1.556-10.865,2.661-5.658-.275-9.821-1.737-10.659-3.988,6.6-3.8,14.646-6.251,23.869-7.444A57.124,57.124,0,0,1,178.132,64a3.35,3.35,0,0,1,1.594,2.234C180,68.268,177.674,70.431,173.793,72.191Z" transform="translate(-1.687 -1.824)"/><path class="cls-4" d="M136.361,129.082l-4.515-18.718a3.528,3.528,0,0,0-2.861-2.661,3.97,3.97,0,0,0-.587-.046,3.538,3.538,0,0,0-.82.1l-1.748.421a8.714,8.714,0,0,0-6.444,10.5l2.023,8.4a9.265,9.265,0,0,0,3.131,5.041,8.41,8.41,0,0,0,.8.567A8.7,8.7,0,0,0,132,133.76l1.742-.421a3.414,3.414,0,0,0,1.272-.591A3.5,3.5,0,0,0,136.361,129.082Z" transform="translate(-1.687 -1.824)"/><ellipse class="cls-8" cx="125.936" cy="121.619" rx="1.466" ry="4.094" transform="translate(-26.717 31.136) rotate(-13.576)"/><ellipse class="cls-8" cx="120.072" cy="123.374" rx="1.466" ry="4.094" transform="translate(-27.292 29.808) rotate(-13.576)"/><path class="cls-2" d="M136.648,129.012l-4.515-18.718a3.823,3.823,0,0,0-3.1-2.877l6.162,25.565A3.8,3.8,0,0,0,136.648,129.012Z" transform="translate(-1.687 -1.824)"/><path class="cls-8" d="M120.407,114.972a3.8,3.8,0,0,0-.686-1.433,8.587,8.587,0,0,0-.335,5.14l2.023,8.4a9.265,9.265,0,0,0,3.131,5.041Z" transform="translate(-1.687 -1.824)"/><path class="cls-7" d="M316.413,261.229l-28.824-66.158A25.072,25.072,0,0,0,275.7,182.586a25.488,25.488,0,0,0-5.148-1.871c-.276-.07-.551-.134-.827-.187a24.756,24.756,0,0,0-11.422.211,25.088,25.088,0,0,0-16.03,12.706.559.559,0,0,0-.047.082,25.142,25.142,0,0,0-.217,22.718l.358.713,20.369,40.8a11.039,11.039,0,0,1-4.989,14.817,11.222,11.222,0,0,1-1.168.5l-1.43.514-25.729,9.268a7.888,7.888,0,0,0-4.884,9.818l.065.2,7.211,23.016c.036.105.071.21.112.316a4.136,4.136,0,0,0,.234.578,7.913,7.913,0,0,0,9.27,4.4l13.885-3.655,2.832-.749L294,307.343a33.736,33.736,0,0,0,22.41-46.114Z" transform="translate(-1.687 -1.824)"/></g><g id="table"><path class="cls-8" d="M32.708,316.787a301.071,301.071,0,0,0,26.825,28.605H324.54A9.63,9.63,0,0,1,334.167,355l.382,66.971a208.5,208.5,0,0,0,45.423-28.378q5.769-4.727,11.181-9.864,3.544-3.351,6.919-6.865a207.917,207.917,0,0,0,40.352-60.077Z" transform="translate(-1.687 -1.824)"/><path class="cls-2" d="M398.072,376.864q-3.368,3.518-6.919,6.865H334.742v-6.865Z" transform="translate(-1.687 -1.824)"/></g><g id="PC"><path class="cls-8" d="M275.305,157.3a3.249,3.249,0,0,0-2.855-1.7H80.225a3.252,3.252,0,0,0-3.248,3.246V273.585H275.7V158.846A3.137,3.137,0,0,0,275.305,157.3Z" transform="translate(-1.687 -1.824)"/><path class="cls-8" d="M76.8,270.479v14.159a4.476,4.476,0,0,0,4.482,4.47h73.348v27.943h-.974a.581.581,0,0,0-.582.58h0v1.944a.581.581,0,0,0,.582.581h45.534a.582.582,0,0,0,.582-.581h0v-1.944a.581.581,0,0,0-.582-.58h-.975V289.108h73.349a4.476,4.476,0,0,0,4.482-4.47h0V270.479Z" transform="translate(-1.687 -1.824)"/><ellipse class="cls-4" cx="172.332" cy="209.709" rx="18.356" ry="18.306"/></g></g></svg>