<?xml version="1.0" encoding="utf-8"?>
<!-- Generator: Adobe Illustrator 19.0.0, SVG Export Plug-In . SVG Version: 6.00 Build 0)  -->
<svg version="1.1" id="Layer_1" xmlns="http://www.w3.org/2000/svg" xmlns:xlink="http://www.w3.org/1999/xlink" x="0px" y="0px"
	 viewBox="0 0 3100 2424" style="enable-background:new 0 0 3100 2424;" xml:space="preserve">
<style type="text/css">
	.st0{fill:#F5821E;}
	.st1{fill:#593A41;}
	.st2{fill:#4C2F35;}
	.st3{opacity:0.2;}
	.st4{fill:#FFFFFF;}
	.st5{fill:#FFAA83;}
	.st6{fill:#717171;}
	.st7{fill:#1A1A1A;}
	.st8{fill:#383463;}
	.st9{fill:#A59399;}
	.st10{fill:#484848;}
	.st11{fill:#5a189a;}
	.st12{fill:#F29372;}
	.st13{fill:#EF9F8A;}
	.st14{opacity:0.5;}
	.st15{fill:#878787;}
	.st16{fill:#A5A5A5;}
	.st17{fill:#E2E2E2;}
	.st18{fill:#752D4B;}
	.st19{fill:#CF8171;}
	.st20{fill:#1b4332;}
	.st21{fill:#723d46;}
	.st22{fill:#2b674d;}
	circle,#XMLID_81_,#XMLID_2_,#XMLID_50_,#XMLID_39_,#XMLID_8_,#XMLID_6_ {
		display:none
	}
	#XMLID_248_{
		animation: ckw infinite ease-in-out;
    animation-duration: 3s;
transform-origin: 1318.2px  1200.46px;

	}
#XMLID_194_{
		animation: ckw infinite ease-in-out;
    animation-duration: 3s;
transform-origin: center;
animation-direction: alternate-reverse;
	}
	#XMLID_430_{
		animation: ckw infinite ease-in-out;
    animation-duration: 3s;
transform-origin: 1716.12px  2064.8px;

	}
@keyframes ckw {
    0% {
        transform: rotate(0deg);
    }
    25% {
        transform: rotate(-5deg);
    }
	 50% {
        transform: rotate(-3deg);
    }
	 100% {
        transform: rotate(0deg);
    }
}
</style>
<circle id="XMLID_60_" cx="339.3" cy="1471" r="208.3"/>
<circle id="XMLID_11_" cx="2716.4" cy="1471" r="208.3"/>
<circle id="XMLID_15_" cx="524.6" cy="804.1" r="208.3"/>
<circle id="XMLID_12_" cx="2531.2" cy="804.1" r="208.3"/>
<circle id="XMLID_17_" cx="1111.1" cy="312.3" r="208.3"/>
<circle id="XMLID_13_" cx="1920" cy="312.3" r="208.3"/>
<ellipse id="XMLID_53_" class="st0" cx="835" cy="2222.2" rx="212" ry="65.2"/>
<ellipse id="XMLID_52_" class="st0" cx="1794.1" cy="2204.7" rx="685.3" ry="109.4"/>
<g id="XMLID_473_">
	<g id="XMLID_481_">
		<g id="XMLID_482_">
			<path id="XMLID_483_" class="st1" d="M2188.6,1285.2c-1.8,6.7-3.1,9.2-3.1,9.2h-79.8c-17.7-41.6-19.3-120.8-19.4-140.4
				c0-2.5,2-4.5,4.5-4.5h103c2.7,0,5,2.2,5,5C2199.3,1233.2,2192.7,1270,2188.6,1285.2z"/>
		</g>
	</g>
	<g id="XMLID_478_">
		<g id="XMLID_479_">
			<path id="XMLID_480_" class="st2" d="M2101.4,1279.8c-34.2-8.6-56-37.7-62.4-62.7c-4.7-18.6-1.5-35.3,8.8-44.7
				c7.6-7,15.7-9.9,24.1-8.7c3.7,0.5,7.1,1.8,10.2,3.6c2.2,1.2,4.2,0,4.3-3.5c0.3-8.7,12.4,19.7,12.6,20.2l-11.3,11.5l0,0
				c-0.1-3.5-1.4-6.8-3.7-9.4c-3.4-3.9-8.5-8.4-14.1-9.2c-4.3-0.6-8.6,1.1-13.2,5.3c-6.6,6.1-8.4,17.9-4.9,31.6
				c4.6,18,18.6,38.5,40.4,48.7c3.9,1.8,4-0.3,3.1-3.5L2101.4,1279.8z"/>
		</g>
	</g>
	<g id="XMLID_476_">
		<path id="XMLID_477_" class="st2" d="M2188.6,1285.2c-1.8,6.7-3.1,9.2-3.1,9.2h-79.8c-17.7-41.6-19.3-120.8-19.4-140.4
			c0-2.5,2-4.5,4.5-4.5h20.6C2111.4,1149.5,2101.9,1272.1,2188.6,1285.2z"/>
	</g>
	<g id="XMLID_474_" class="st3">
		<path id="XMLID_475_" class="st4" d="M2170.8,1149.5c0,0,6.6,58.2,0.5,92c-0.4,2.4-0.2,5,1,7.2c1.3,2.5,3.7,4.4,7.6,0.3
			c11.3-12.1,8.8-99.5,8.8-99.5H2170.8z"/>
	</g>
</g>
<g id="XMLID_471_">
	<path id="XMLID_472_" class="st5" d="M1712.1,923.7l78.5,169.9c0,0-72.8,43-78.5,41.6c-5.6-1.4-40.8-128.9-40.8-128.9L1712.1,923.7
		z"/>
</g>
<g id="XMLID_452_">
	<g id="XMLID_469_">
		<path id="XMLID_470_" class="st6" d="M1498.4,1775.2h-64.7c-20.9,0-38-17.1-38-38l0,0c0-20.9,17.1-38,38-38h64.7
			c20.9,0,38,17.1,38,38l0,0C1536.3,1758.2,1519.3,1775.2,1498.4,1775.2z"/>
	</g>
	<g id="XMLID_467_">
		<rect id="XMLID_468_" x="1449.4" y="1708.3" class="st6" width="27.7" height="450.8"/>
	</g>
	<g id="XMLID_464_">
		<g id="XMLID_465_">
			<path id="XMLID_466_" class="st6" d="M1590.8,2183.5c-0.5,0-1-0.1-1.5-0.2c-114.4-26.1-245.3-0.2-246.6,0
				c-3.7,0.8-7.4-1.7-8.1-5.4c-0.8-3.7,1.7-7.4,5.4-8.1c1.3-0.3,135.1-26.7,252.4,0c3.7,0.8,6,4.5,5.2,8.3
				C1596.8,2181.3,1594,2183.5,1590.8,2183.5z"/>
		</g>
	</g>
	<g id="XMLID_462_">
		<circle id="XMLID_463_" class="st7" cx="1369.7" cy="2204.4" r="27.4"/>
	</g>
	<g id="XMLID_460_">
		<circle id="XMLID_461_" class="st7" cx="1556.7" cy="2204.4" r="27.4"/>
	</g>
	<g id="XMLID_458_">
		<path id="XMLID_459_" class="st8" d="M1297.4,1487c0,0,12.7,105.4,9.8,150.4h53.9c0,0,2.4-92.8-21.5-150.4
			C1315.7,1429.4,1297.4,1487,1297.4,1487z"/>
	</g>
	<g id="XMLID_453_">
		<g id="XMLID_456_">
			<path id="XMLID_457_" class="st9" d="M1210.4,1737.3h588.8c0,0,37-62.3-57.7-103.7s-265.5-6.6-325.6-19.2
				c-60.1-12.7-130.4-20.2-217.8,25.7C1149.7,1665.6,1121.9,1737.3,1210.4,1737.3z"/>
		</g>
		<g id="XMLID_454_">
			<path id="XMLID_455_" class="st9" d="M1352.3,1537.7c56.1-3.9,180.7-21.8,216.5-71.3c42.7-59.1-14.1-476.9-184.2-520.5
				c-170.1-43.6-254.5,59-271.3,139.2c-16.9,80.1-46.4,350.1-4.2,400.7C1151.3,1536.3,1225.1,1546.5,1352.3,1537.7z"/>
		</g>
	</g>
</g>
<g id="XMLID_447_">
	<g id="XMLID_450_">
		<polygon id="XMLID_451_" class="st10" points="2097.1,2218 2097.1,2231.8 2031.4,2231.8 2023.8,2205.1 		"/>
	</g>
	<g id="XMLID_448_">
		<path id="XMLID_449_" class="st7" d="M2124.1,2064.8c0,0,24.5,73.4,61.8,95.2c30.1,17.6,87.5,20.2,102.8,55.2
			c3.4,7.8-2.2,16.6-10.4,16.6h-154.2c0,0-56.1-16.3-82.6-12.3c-26.5,4-25.2-62.9-17.7-87.6c7.6-24.7,1.3-67,1.3-67H2124.1z"/>
	</g>
</g>
<g id="XMLID_445_">
	<path id="XMLID_446_" class="st10" d="M1268.1,1339.8c0,0-67.4,98.5-48.5,209.5c18.9,111.1,83.5,92.9,168,100
		c120.3,10.1,246-3.2,249.8,22.6c6,40,168.7-14.1,168.7-14.1s187.8-91,170.1-138.9C1930.9,1396.7,1397.7,1316.1,1268.1,1339.8z"/>
</g>
<g id="XMLID_443_">
	<path id="XMLID_444_" class="st10" d="M1972.6,1511.2c43.5,59.9,139.7,547.2,134.6,556.7c-9,16.7-23,5.3-69.3,25.7
		c-50.2,22.2-78.4,0.9-78.4,0.9s-33-96.1-89-258.3c-20.1-58.2-41.9-121.3-63.9-185C1733.2,1439.4,1932.8,1456.3,1972.6,1511.2z"/>
</g>
<g id="XMLID_441_">
	<path id="XMLID_442_" class="st7" d="M1859.3,1576.8c24.2,69.6,18.4,280.3,18.4,280.3l-24.3-70.4l-85.7-283
		C1767.7,1503.7,1841.6,1526,1859.3,1576.8z"/>
</g>
<g id="XMLID_430_">
	<g id="XMLID_433_">
		<polygon id="XMLID_434_" class="st10" points="1794.2,2218 1794.2,2231.8 1728.5,2231.8 1720.9,2205.1 		"/>
	</g>
	<g id="XMLID_431_">
		<path id="XMLID_432_" class="st7" d="M1821.1,2064.8c0,0,24.5,73.4,61.8,95.2c30.1,17.6,87.5,20.2,102.8,55.2
			c3.4,7.8-2.2,16.6-10.4,16.6h-154.2c0,0-56.1-16.3-82.6-12.3c-26.5,4-25.2-62.9-17.7-87.6c7.6-24.7,1.3-67,1.3-67H1821.1z"/>
	</g>
</g>
<g id="XMLID_428_">
	<path id="XMLID_429_" class="st10" d="M1841.8,1656.2c29,263.1,14.9,428.6,8.1,437c-12,14.7-23.6,1-72.8,12.6
		c-53.4,12.6-77.3-13.5-77.3-13.5s-14.8-100.5-40-270.3c-9.1-60.9-18.9-126.9-28.9-193.6c-29.7-198.1,185.2-128.7,191.3-76.9
		C1824.5,1571.2,1839.2,1633.1,1841.8,1656.2z"/>
</g>
<g id="XMLID_426_">
	<path id="XMLID_427_" class="st11" d="M1207.3,890.5c1.1,13.4,7.9,56.3,16.2,106.9c1.4,8.4,2.8,16.9,4.2,25.6l0,0
		c13.9,84.5,29.8,179.6,30.4,194.5c1.6,44.8-26.1,157.1-28,186.3c-0.5,7.3,22.1,3.6,47.1,2.2c27.6-1.6,78.5,19.4,153.6,19.6
		c128.9,0.5,175.3-60.3,175.3-60.3c-13.7-38.7-9.4-91.3-2.7-133.7c3.3-21.1,55.4-329.1,55.4-329.1l-35.2-90.5
		c-164.2-43.5-344.6-12.6-344.6-12.6S1200.4,809.4,1207.3,890.5z"/>
</g>
<g id="XMLID_424_">
	<path id="XMLID_425_" class="st11" d="M1418.2,769.9c0,0,2.7,5.3,7.5,14.2c2.6,4.9,5.8,10.8,9.5,17.6c9,16.3,20.9,37.5,34.7,60.1
		c40.4,66.2,96.2,145,136.7,151.8c7.8,1.3,47.8,45.5,52.3,42.6c71.4-45.1,103.5-134.4,79.9-153.1
		c-57.5-45.7-108.5-102.2-170.5-112.8c-17.6-3-36.6-5.9-55-8.5c-34.3-4.8-66.4-8.7-83.1-10.6
		C1422.5,770.3,1418.2,769.9,1418.2,769.9z"/>
</g>
<g id="XMLID_422_">
	<path id="XMLID_423_" class="st11" d="M1210.8,1039.2c24.2-13.5,50.2-24.4,75.7-28.4c40.7-6.4,82.8-87.1,111.3-154.7
		c8.4-20,15.7-38.9,21.3-54.3c2.4-6.6,4.6-12.6,6.4-17.8c1.8-5.2,3.3-9.5,4.4-12.9c1.7-5.1,2.6-8,2.6-8s-33.6,8.2-76.5,17
		c-16.6,3.4-34.7,6.9-52.7,10c-62,10.8-87.9,36.9-137.4,91.1C1116.6,935.6,1161.6,1066.7,1210.8,1039.2z"/>
</g>
<g id="XMLID_420_">
	<path id="XMLID_421_" class="st5" d="M1369.5,777.5c10.2-2.2,18.1-10.6,20-21.3c3.7-21.6,8.3-50.6,11.4-77.6
		c0.8-7.2-6.4-34.8-6.7-35.2c0.8,0.2,113.5,33,99.8,67.6c-0.6,1.5-1.2,3.2-1.7,4.9c-3.3,11-4.5,25-4.5,39c0,8.4,0.6,16.4,1.4,23.7
		c7.7,1,15.8,2.1,24,3.3c1.4,6.4,7.3,85.1-60.2,85.1c-55.4,0-94.9-79.1-96.7-86.6C1360.8,779.3,1365.2,778.4,1369.5,777.5z"/>
</g>
<g id="XMLID_418_">
	<path id="XMLID_419_" class="st12" d="M1398.9,675.1c0.7,5.1-1.5,24.3-1.4,30.2c25.4,51.7,89.4,49.2,90.3,49.5c0-14,1.1-28,4.5-39
		C1466.9,703.1,1413.3,672.9,1398.9,675.1z"/>
</g>
<g id="XMLID_398_">
	<g id="XMLID_399_">
		<path id="XMLID_400_" class="st13" d="M1511.4,704.2c-5.6-2.1-11.3-2.3-17.1-0.4c-2.1,0.7-3-2.7-0.9-3.4c6.2-2.1,12.7-2,18.9,0.4
			C1514.3,701.5,1513.5,704.9,1511.4,704.2L1511.4,704.2z"/>
	</g>
</g>
<g id="XMLID_367_">
	<g id="XMLID_371_">
		<g id="XMLID_372_">
			<path id="XMLID_373_" class="st7" d="M1611.8,1657.5c28.1,7.6,57.5,6,84.6-4.6c1.6-0.6,0.9-3.3-0.7-2.6
				c-26.7,10.4-55.5,12.1-83.1,4.6C1610.8,1654.5,1610.1,1657.1,1611.8,1657.5L1611.8,1657.5z"/>
		</g>
	</g>
	<g id="XMLID_368_">
		<g id="XMLID_369_">
			<path id="XMLID_370_" class="st7" d="M1657.1,1671.8c-10.1-2.9-19.4-7.5-27.8-13.9c-1.4-1.1-2.7,1.3-1.4,2.3
				c8.6,6.5,18.1,11.2,28.4,14.2C1658.1,1674.9,1658.8,1672.2,1657.1,1671.8L1657.1,1671.8z"/>
		</g>
	</g>
</g>
<g id="XMLID_364_">
	<g id="XMLID_365_">
		<path id="XMLID_366_" class="st7" d="M1854.1,1785.9c-0.6,0-1.1-0.4-1.1-1c-0.1-1.5-8.6-151.1-32-233.1
			c-11.4-40.1-139-86.7-193.4-104.9c-16.3-5.5-25.3-14.4-25.6-14.8c-0.4-0.4-0.4-1.1,0-1.5c0.4-0.4,1.1-0.4,1.5,0
			c0.1,0.1,9,8.9,24.8,14.2c30.3,10.1,74.7,26.1,113.9,44.7c48.6,23,75.8,43.8,80.9,61.6c23.4,82.2,32,232,32,233.5
			C1855.3,1785.3,1854.8,1785.8,1854.1,1785.9C1854.2,1785.9,1854.2,1785.9,1854.1,1785.9z"/>
	</g>
</g>
<g id="XMLID_357_">
	<g id="XMLID_361_">
		<g id="XMLID_362_">
			<path id="XMLID_363_" class="st7" d="M1891.7,1806.4c16.7,19.4,31.5,40.3,44.2,62.5c0.9,1.5,3.2,0.2,2.3-1.4
				c-12.9-22.4-27.8-43.5-44.6-63.1C1892.5,1803.1,1890.5,1805.1,1891.7,1806.4L1891.7,1806.4z"/>
		</g>
	</g>
	<g id="XMLID_358_">
		<g id="XMLID_359_">
			<path id="XMLID_360_" class="st7" d="M1909.7,1843.9c2.5,8.9,4.2,18,5.1,27.3c0.2,1.7,2.9,1.7,2.7,0c-0.9-9.5-2.7-18.8-5.2-28
				C1911.9,1841.5,1909.2,1842.3,1909.7,1843.9L1909.7,1843.9z"/>
		</g>
	</g>
</g>
<g id="XMLID_347_">
	<g id="XMLID_354_">
		<g id="XMLID_355_">
			<path id="XMLID_356_" class="st7" d="M1653.9,1412.4c-3.9,8.2-6.3,16.7-7.4,25.7c-0.1,1.1,1.2,1.6,2,1.2c8.5-4.6,17.5-7.8,27-9.6
				c1.7-0.3,1-3-0.7-2.6c-9.7,1.9-18.9,5.2-27.6,9.9c0.7,0.4,1.4,0.8,2,1.2c1-8.5,3.3-16.6,7-24.4
				C1657,1412.2,1654.7,1410.8,1653.9,1412.4L1653.9,1412.4z"/>
		</g>
	</g>
	<g id="XMLID_351_">
		<g id="XMLID_352_">
			<path id="XMLID_353_" class="st7" d="M1558.6,1437.5c-30.5,1.1-60.9,3.2-91.3,6.3c-1.7,0.2-1.7,2.9,0,2.7
				c30.4-3.1,60.8-5.2,91.3-6.3C1560.4,1440.1,1560.4,1437.4,1558.6,1437.5L1558.6,1437.5z"/>
		</g>
	</g>
	<g id="XMLID_348_">
		<g id="XMLID_349_">
			<path id="XMLID_350_" class="st7" d="M1556.8,1440.6c-27.1,7.2-53,17.9-77.2,32c-1.5,0.9-0.1,3.2,1.4,2.3
				c24.1-14,49.7-24.6,76.6-31.7C1559.2,1442.8,1558.5,1440.2,1556.8,1440.6L1556.8,1440.6z"/>
		</g>
	</g>
</g>
<g id="XMLID_271_">
	<g id="XMLID_344_">
		<g id="XMLID_345_">
			<path id="XMLID_346_" class="st7" d="M1299.2,1476.8c0,3.4,0,6.8,0,10.1c0,1.7,2.7,1.8,2.7,0c0-3.4,0-6.8,0-10.1
				C1301.9,1475.1,1299.2,1475.1,1299.2,1476.8L1299.2,1476.8z"/>
		</g>
	</g>
	<g id="XMLID_341_">
		<g id="XMLID_342_">
			<path id="XMLID_343_" class="st7" d="M1303.3,1515c1.4,5.8,2.9,11.6,4.3,17.4c0.4,1.7,3,1,2.6-0.7c-1.4-5.8-2.9-11.6-4.3-17.4
				C1305.5,1512.5,1302.8,1513.3,1303.3,1515L1303.3,1515z"/>
		</g>
	</g>
	<g id="XMLID_338_">
		<g id="XMLID_339_">
			<path id="XMLID_340_" class="st7" d="M1326,1552c5.8,3.9,11.6,7.7,17.4,11.6c1.5,1,2.8-1.4,1.4-2.3c-5.8-3.9-11.6-7.7-17.4-11.6
				C1325.9,1548.6,1324.5,1551,1326,1552L1326,1552z"/>
		</g>
	</g>
	<g id="XMLID_335_">
		<g id="XMLID_336_">
			<path id="XMLID_337_" class="st7" d="M1366.9,1572.1c4.5,0.8,8.7,2.3,12.6,4.6c1.5,0.9,2.9-1.5,1.4-2.3c-4.1-2.4-8.6-4-13.3-4.8
				C1365.9,1569.2,1365.2,1571.8,1366.9,1572.1L1366.9,1572.1z"/>
		</g>
	</g>
	<g id="XMLID_332_">
		<g id="XMLID_333_">
			<path id="XMLID_334_" class="st7" d="M1415.1,1579.4c5.3,0.6,10.6,1.2,15.9,1.7c1.7,0.2,1.7-2.5,0-2.7
				c-5.3-0.6-10.6-1.2-15.9-1.7C1413.4,1576.5,1413.4,1579.2,1415.1,1579.4L1415.1,1579.4z"/>
		</g>
	</g>
	<g id="XMLID_329_">
		<g id="XMLID_330_">
			<path id="XMLID_331_" class="st7" d="M1465.8,1582.6c3.4,0,6.8,0,10.1,0c1.7,0,1.8-2.7,0-2.7c-3.4,0-6.8,0-10.1,0
				C1464.1,1579.8,1464.1,1582.6,1465.8,1582.6L1465.8,1582.6z"/>
		</g>
	</g>
	<g id="XMLID_326_">
		<g id="XMLID_327_">
			<path id="XMLID_328_" class="st7" d="M1506.4,1584c4.3,0,8.7,0,13,0c1.7,0,1.8-2.7,0-2.7c-4.3,0-8.7,0-13,0
				C1504.7,1581.3,1504.7,1584,1506.4,1584L1506.4,1584z"/>
		</g>
	</g>
	<g id="XMLID_323_">
		<g id="XMLID_324_">
			<path id="XMLID_325_" class="st7" d="M1554.3,1584c4.3,0,8.7,0,13,0c1.7,0,1.8-2.7,0-2.7c-4.3,0-8.7,0-13,0
				C1552.5,1581.3,1552.5,1584,1554.3,1584L1554.3,1584z"/>
		</g>
	</g>
	<g id="XMLID_320_">
		<g id="XMLID_321_">
			<path id="XMLID_322_" class="st7" d="M1593.7,1583.8c1.9-0.5,3.9-1,5.8-1.5c1.7-0.4,1-3.1-0.7-2.6c-1.9,0.5-3.9,1-5.8,1.5
				C1591.3,1581.6,1592,1584.2,1593.7,1583.8L1593.7,1583.8z"/>
		</g>
	</g>
	<g id="XMLID_317_">
		<g id="XMLID_318_">
			<path id="XMLID_319_" class="st7" d="M1621,1581.1c2.4,0,4.8,0,7.2,0c1.7,0,1.8-2.7,0-2.7c-2.4,0-4.8,0-7.2,0
				C1619.2,1578.4,1619.2,1581.1,1621,1581.1L1621,1581.1z"/>
		</g>
	</g>
	<g id="XMLID_314_">
		<g id="XMLID_315_">
			<path id="XMLID_316_" class="st7" d="M1650.4,1584.1c2.2-0.5,4.3-0.1,6.2,1.1c1.5,1,2.8-1.4,1.4-2.3c-2.5-1.6-5.4-2.1-8.3-1.4
				C1647.9,1581.8,1648.7,1584.5,1650.4,1584.1L1650.4,1584.1z"/>
		</g>
	</g>
	<g id="XMLID_311_">
		<g id="XMLID_312_">
			<path id="XMLID_313_" class="st7" d="M1681.9,1591.3c3.5,0.4,6.8,2.3,8.9,5.1c1,1.4,3.4,0,2.3-1.4c-2.8-3.7-6.7-5.9-11.3-6.5
				C1680.1,1588.3,1680.1,1591.1,1681.9,1591.3L1681.9,1591.3z"/>
		</g>
	</g>
	<g id="XMLID_308_">
		<g id="XMLID_309_">
			<path id="XMLID_310_" class="st7" d="M1705.6,1608.3c1.4,1.4,2.9,2.9,4.3,4.3c1.2,1.2,3.2-0.7,1.9-1.9c-1.4-1.4-2.9-2.9-4.3-4.3
				C1706.2,1605.1,1704.3,1607,1705.6,1608.3L1705.6,1608.3z"/>
		</g>
	</g>
	<g id="XMLID_305_">
		<g id="XMLID_306_">
			<path id="XMLID_307_" class="st7" d="M1717.1,1635.4c1.3,2.4,1.6,5,1.1,7.7c-0.4,1.7,2.3,2.4,2.6,0.7c0.7-3.4,0.3-6.7-1.3-9.8
				C1718.6,1632.5,1716.3,1633.9,1717.1,1635.4L1717.1,1635.4z"/>
		</g>
	</g>
	<g id="XMLID_302_">
		<g id="XMLID_303_">
			<path id="XMLID_304_" class="st7" d="M1721.1,1663.8c0,1.9,0,3.9,0,5.8c0,1.7,2.7,1.8,2.7,0c0-1.9,0-3.9,0-5.8
				C1723.8,1662.1,1721.1,1662.1,1721.1,1663.8L1721.1,1663.8z"/>
		</g>
	</g>
	<g id="XMLID_299_">
		<g id="XMLID_300_">
			<path id="XMLID_301_" class="st7" d="M1713.9,1700.1c-0.5,5.3-1.1,10.6-1.6,15.9c-0.2,1.7,2.5,1.7,2.7,0
				c0.6-5.3,1.1-10.6,1.7-15.9C1716.8,1698.3,1714.1,1698.4,1713.9,1700.1L1713.9,1700.1z"/>
		</g>
	</g>
	<g id="XMLID_296_">
		<g id="XMLID_297_">
			<path id="XMLID_298_" class="st7" d="M1712.4,1742.1c0,5.8,0,11.6,0,17.4c0,1.7,2.7,1.8,2.7,0c0-5.8,0-11.6,0-17.4
				C1715.1,1740.4,1712.4,1740.4,1712.4,1742.1L1712.4,1742.1z"/>
		</g>
	</g>
	<g id="XMLID_293_">
		<g id="XMLID_294_">
			<path id="XMLID_295_" class="st7" d="M1717.3,1787.4c0.7,4.9,1.4,9.7,2.1,14.6c0.3,1.7,2.9,1,2.6-0.7c-0.7-4.9-1.4-9.7-2.1-14.6
				C1719.7,1784.9,1717.1,1785.6,1717.3,1787.4L1717.3,1787.4z"/>
		</g>
	</g>
	<g id="XMLID_290_">
		<g id="XMLID_291_">
			<path id="XMLID_292_" class="st7" d="M1725.7,1835.6c1.4,3.4,2.9,6.8,4.3,10.1c0.7,1.6,3,0.2,2.3-1.4c-1.4-3.4-2.9-6.8-4.3-10.1
				C1727.3,1832.6,1725,1834,1725.7,1835.6L1725.7,1835.6z"/>
		</g>
	</g>
	<g id="XMLID_287_">
		<g id="XMLID_288_">
			<path id="XMLID_289_" class="st7" d="M1735.6,1878.4c0,1.9,0,3.9,0,5.8c0,1.7,2.7,1.8,2.7,0c0-1.9,0-3.9,0-5.8
				C1738.3,1876.7,1735.6,1876.7,1735.6,1878.4L1735.6,1878.4z"/>
		</g>
	</g>
	<g id="XMLID_284_">
		<g id="XMLID_285_">
			<path id="XMLID_286_" class="st7" d="M1745.8,1923c-0.6,3.9-0.1,7.6,1.5,11.2c0.7,1.6,3,0.2,2.3-1.4c-1.2-2.9-1.7-6-1.2-9.1
				C1748.7,1922,1746.1,1921.3,1745.8,1923L1745.8,1923z"/>
		</g>
	</g>
	<g id="XMLID_281_">
		<g id="XMLID_282_">
			<path id="XMLID_283_" class="st7" d="M1748.6,1965.4c0,1.4,0,2.9,0,4.3c0,1.7,2.7,1.8,2.7,0c0-1.4,0-2.9,0-4.3
				C1751.4,1963.6,1748.6,1963.6,1748.6,1965.4L1748.6,1965.4z"/>
		</g>
	</g>
	<g id="XMLID_278_">
		<g id="XMLID_279_">
			<path id="XMLID_280_" class="st7" d="M1754.4,2006c0,4.8,0,9.7,0,14.5c0,1.7,2.7,1.8,2.7,0c0-4.8,0-9.7,0-14.5
				C1757.2,2004.2,1754.4,2004.2,1754.4,2006L1754.4,2006z"/>
		</g>
	</g>
	<g id="XMLID_275_">
		<g id="XMLID_276_">
			<path id="XMLID_277_" class="st7" d="M1759.1,2055.6c0.5,2.4,1,4.8,1.4,7.3c0.3,1.7,3,1,2.6-0.7c-0.5-2.4-1-4.8-1.4-7.3
				C1761.4,2053.1,1758.8,2053.9,1759.1,2055.6L1759.1,2055.6z"/>
		</g>
	</g>
	<g id="XMLID_272_">
		<g id="XMLID_273_">
			<path id="XMLID_274_" class="st7" d="M1761.7,2091.5c0,0.5,0,1,0,1.4c0,1.7,2.7,1.8,2.7,0c0-0.5,0-1,0-1.4
				C1764.4,2089.8,1761.7,2089.8,1761.7,2091.5L1761.7,2091.5z"/>
		</g>
	</g>
</g>
<g id="XMLID_252_">
	<g id="XMLID_267_" class="st14">
		<path id="XMLID_268_" class="st10" d="M1294.3,1356.5c0,0,147.5,64.6,245.3,18.3c0,0,9.9-14,0-18.3
			C1529.7,1352.1,1418.5,1394,1294.3,1356.5z"/>
	</g>
	<g id="XMLID_264_">
		<g id="XMLID_265_">
			<path id="XMLID_266_" class="st10" d="M1656.7,965.1c-13.2,25.7-22,53.1-26,81.7c-0.2,1.4,1.9,2,2.1,0.6
				c4-28.4,12.6-55.7,25.8-81.2C1659.2,965,1657.3,963.9,1656.7,965.1L1656.7,965.1z"/>
		</g>
	</g>
	<g id="XMLID_261_">
		<g id="XMLID_262_">
			<path id="XMLID_263_" class="st10" d="M1361.8,841.4c17.5,30.7,44.8,54.2,77.7,66.9c1.3,0.5,1.9-1.6,0.6-2.1
				c-32.3-12.5-59.2-35.8-76.4-65.9C1362.9,839.1,1361.1,840.2,1361.8,841.4L1361.8,841.4z"/>
		</g>
	</g>
	<g id="XMLID_258_">
		<g id="XMLID_259_">
			<path id="XMLID_260_" class="st10" d="M1371,880.8c11.8,28.2,27.4,54.4,46.5,78.3c0.9,1.1,2.4-0.5,1.5-1.5
				c-18.8-23.6-34.3-49.5-45.9-77.3C1372.5,878.9,1370.4,879.5,1371,880.8L1371,880.8z"/>
		</g>
	</g>
	<g id="XMLID_255_">
		<g id="XMLID_256_">
			<path id="XMLID_257_" class="st10" d="M1244.1,1056.9c3.9,0.7,7.8,1.3,11.7,2c2.2,0.4,6.7,1.9,9,0.9c3.2-1.3,4.7-5.4,6.4-8.1
				c9.6-14.8,20.4-28.8,32.2-41.9c0.9-1-0.6-2.6-1.6-1.5c-8.4,9.4-16.3,19.2-23.7,29.5c-3.5,4.9-6.4,11.3-10.5,15.6
				c-1.3,3.5-4.1,4.8-8.4,4c-1-0.2-1.9-0.3-2.9-0.5c-3.9-0.3-7.8-1.3-11.7-2C1243.3,1054.5,1242.7,1056.7,1244.1,1056.9
				L1244.1,1056.9z"/>
		</g>
	</g>
	<g id="XMLID_253_" class="st14">
		<path id="XMLID_254_" class="st10" d="M1306.7,1093.6c0,0,55.9,61,133,59.1c0,0,24.8,0,16.9-17.7
			C1448.8,1117.3,1423.9,1168.6,1306.7,1093.6z"/>
	</g>
</g>
<g id="XMLID_249_">
	<g id="XMLID_250_">
		<path id="XMLID_251_" class="st12" d="M1209.2,1176.4c-12.9,0-25.6,1.7-38,5.5c-9,2.8-20.4,5.8-26.3,13.6c-0.9,1.1,1,2.3,1.8,1.2
			c6.4-8.4,21.4-11.9,31.1-14.3c10.2-2.6,20.7-3.7,31.2-3.7C1210.4,1178.5,1210.6,1176.4,1209.2,1176.4L1209.2,1176.4z"/>
	</g>
</g>
<g id="XMLID_10_">
	<g id="XMLID_374_">
		<g id="XMLID_375_">
			<path id="XMLID_376_" class="st5" d="M1439.2,1286.8c0,0-99.1,24-176,25.7c-115.8,2.6-169.6-18.5-189.7-29.6
				c-6.3-3.5-10.2-10.1-10.1-17.4c0.5-35.1,9.4-155,97.4-352.4l162.5,28.1c0,0-134.7,221.8-116.4,235.1c6.8,5,99.8,43.8,179.5,32.8
				L1439.2,1286.8z"/>
		</g>
	</g>
	<g id="XMLID_246_">
		<g id="XMLID_247_">
			<path id="XMLID_248_" class="st5" d="M1527.9,1213.7c-6.9-13.4-99.6-14.9-117.2-12c-19.1,3.3-92.5,34.3-92.5,34.3l21.3,52.7
				c0,0,8.3,35,98.4,4.8c4.5-1.5,22.1,26,28.9,22.1c3.8-2.2-10-28.4-15.8-42.1c-0.7-1.7,1.1-3.4,2.6-2.5
				c17.8,9.7,41.9,41.8,51.7,35.6c2.1-1.3-8.6-22-15-35.2c-3.4-7.1-13.9-16.3-22.8-23.3c-0.7-0.5-0.1-1.7,0.8-1.4
				c9.7,3.3,20.8,9.7,26.6,14.4c10,8,33.5,31.9,47.3,27.8c5.7-1.7-23-33-33-47c-1.6-2.3-4.3-4.5-7.5-6.7c-0.6-0.4-0.1-1.4,0.6-1.2
				c6.2,2.1,11.4,4,13.3,5.4c17.6,12.5,38,31.4,51.5,24.4C1570.6,1261.9,1530.8,1219.2,1527.9,1213.7z"/>
		</g>
	</g>
</g>
<g id="XMLID_231_">
	<g id="XMLID_243_">
		<g id="XMLID_244_">
			<path id="XMLID_245_" class="st15" d="M2305.2,2230.8c-2.1,0-3.9-1.6-4.2-3.7l-112.7-901.9c-0.3-2.3,1.4-4.4,3.7-4.7
				c2.3-0.3,4.4,1.4,4.7,3.7l112.7,901.9c0.3,2.3-1.4,4.4-3.7,4.7C2305.5,2230.8,2305.3,2230.8,2305.2,2230.8z"/>
		</g>
	</g>
	<g id="XMLID_240_">
		<g id="XMLID_241_">
			<path id="XMLID_242_" class="st15" d="M876.2,2231.5c-0.2,0-0.4,0-0.5,0c-2.3-0.3-4-2.4-3.7-4.7l112.7-902.5
				c0.3-2.3,2.4-4,4.7-3.7c2.3,0.3,4,2.4,3.7,4.7l-112.7,902.5C880.2,2229.9,878.3,2231.5,876.2,2231.5z"/>
		</g>
	</g>
	<g id="XMLID_235_">
		<g id="XMLID_238_">
			<path id="XMLID_239_" class="st10" d="M2247.5,1324.7H969.9c-8.4,0-15.2-6.8-15.2-15.2l0,0c0-8.4,6.8-15.2,15.2-15.2h1277.6
				c8.4,0,15.2,6.8,15.2,15.2l0,0C2262.7,1317.9,2255.9,1324.7,2247.5,1324.7z"/>
		</g>
		<g id="XMLID_236_">
			<path id="XMLID_237_" class="st6" d="M2294.3,1324.7H1278.7c-8.4,0-15.2-6.8-15.2-15.2l0,0c0-8.4,6.8-15.2,15.2-15.2h1015.6
				c8.4,0,15.2,6.8,15.2,15.2l0,0C2309.4,1317.9,2302.6,1324.7,2294.3,1324.7z"/>
		</g>
	</g>
	<g id="XMLID_232_">
		<g id="XMLID_233_">
			<path id="XMLID_234_" class="st15" d="M1260.8,2231.8c-0.2,0-0.4,0-0.5,0c-2.3-0.3-4-2.4-3.7-4.7l112.7-902.8
				c0.3-2.3,2.4-4,4.7-3.7c2.3,0.3,4,2.4,3.7,4.7L1265,2228.1C1264.8,2230.2,1262.9,2231.8,1260.8,2231.8z"/>
		</g>
	</g>
</g>
<g id="XMLID_194_">
	<g id="XMLID_229_">
		<path id="XMLID_230_" class="st20" d="M848.8,1915.9c0,0,106.5-75.2,90.4-154.1c-16.1-78.9-61.7-63.6-59.5-122.3
			c2.2-58.8-52-83.8-91.7-83.3c-39.7,0.5-85.4-82.6-134.6-62.6c-49.2,20.1,23.1,77.7,7.6,112.3c-15.5,34.6-12.7,76.7,36,107.1
			C745.8,1743.3,649.4,1845.2,848.8,1915.9z"/>
	</g>
	<g id="XMLID_195_">
		<g id="XMLID_226_">
			<g id="XMLID_227_">
				<path id="XMLID_228_" class="st15" d="M651.9,1496.3c23.2,17.2,44,37.6,63.1,59.2c26.2,29.6,49.1,62.2,68,97
					c19.8,36.2,35.2,74.7,45.1,114.7c9.3,37.3,15.1,75.6,18,114c2.6,34.5,3.5,70.3-3,104.5c-0.7,3.6-1.5,7.1-2.4,10.7
					c-0.3,1.2,1.5,1.8,1.8,0.6c8.3-32.4,8.2-67.1,6.5-100.2c-2-39.1-7.3-78.2-15.8-116.4c-8.9-39.8-22.6-78.2-41-114.6
					c-18.3-36.2-40.9-70.2-67-101.3c-19.6-23.4-41.3-45.5-65.3-64.4c-2.3-1.8-4.6-3.6-6.9-5.3C652,1494,650.9,1495.6,651.9,1496.3
					L651.9,1496.3z"/>
			</g>
		</g>
		<g id="XMLID_223_">
			<g id="XMLID_224_">
				<path id="XMLID_225_" class="st15" d="M928.1,1730.8c-12.1,46.1-50.5,77.2-86.3,105.4c-0.3,0.2,0.1,0.7,0.4,0.4
					c35.8-28.3,74.4-59.5,86.5-105.7C928.7,1730.6,928.2,1730.4,928.1,1730.8L928.1,1730.8z"/>
			</g>
		</g>
		<g id="XMLID_220_">
			<g id="XMLID_221_">
				<path id="XMLID_222_" class="st15" d="M834.4,1789.9c-22.2-0.6-43.9-7.3-64.1-16.3c-20.5-9.2-39.8-21-57.7-34.6
					c-0.3-0.2-0.6,0.3-0.3,0.5c17.9,13.7,37.3,25.5,57.8,34.6c20.2,9,42,15.7,64.3,16.3C834.7,1790.5,834.8,1789.9,834.4,1789.9
					L834.4,1789.9z"/>
			</g>
		</g>
		<g id="XMLID_217_">
			<g id="XMLID_218_">
				<path id="XMLID_219_" class="st15" d="M801.4,1556.4c3.7,32.3-4.2,65.4-18.4,94.3c-0.2,0.3,0.4,0.5,0.6,0.2
					c14.3-29,22.2-62.2,18.5-94.6C801.9,1555.9,801.4,1556,801.4,1556.4L801.4,1556.4z"/>
			</g>
		</g>
		<g id="XMLID_214_">
			<g id="XMLID_215_">
				<path id="XMLID_216_" class="st15" d="M821.3,1561.9c1,19.2-0.6,38.4-4.9,57.2c-4.1,18.3-10.1,36.9-23.4,50.6
					c-0.3,0.3,0.1,0.7,0.4,0.4c13.1-13.6,19.1-31.7,23.3-49.7c4.5-19.1,6.2-38.9,5.2-58.5C821.9,1561.6,821.3,1561.6,821.3,1561.9
					L821.3,1561.9z"/>
			</g>
		</g>
		<g id="XMLID_211_">
			<g id="XMLID_212_">
				<path id="XMLID_213_" class="st15" d="M813.8,1718.3c-48.3-4.2-94.9-24.8-131.5-56.4c-10.5-9.1-20.1-19.1-28.7-30
					c-0.2-0.3-0.7,0.1-0.4,0.4c30.3,38.4,73.7,66.3,120.7,79.4c13.1,3.6,26.4,6.1,39.9,7.2C814.1,1718.9,814.1,1718.3,813.8,1718.3
					L813.8,1718.3z"/>
			</g>
		</g>
		<g id="XMLID_208_">
			<g id="XMLID_209_">
				<path id="XMLID_210_" class="st15" d="M805.4,1699.2c-45.2-6.6-87.3-29.3-120.9-59.8c-9.3-8.5-17.9-17.6-25.9-27.3
					c-0.2-0.3-0.7,0.1-0.4,0.4c28.9,35.3,67.6,63.5,110.8,78.5c11.8,4.1,24,7.1,36.4,8.9C805.8,1699.8,805.8,1699.2,805.4,1699.2
					L805.4,1699.2z"/>
			</g>
		</g>
		<g id="XMLID_205_">
			<g id="XMLID_206_">
				<path id="XMLID_207_" class="st15" d="M741.5,1532.6c1.5,14.2-2.8,29.2-9.7,41.6c-0.2,0.3,0.3,0.7,0.5,0.3
					c7-12.5,11.4-27.6,9.8-42C742.1,1532.1,741.5,1532.2,741.5,1532.6L741.5,1532.6z"/>
			</g>
		</g>
		<g id="XMLID_202_">
			<g id="XMLID_203_">
				<path id="XMLID_204_" class="st15" d="M702.4,1539.9c-20.4,5.9-42.5,3.4-61.2-6.7c-0.3-0.2-0.7,0.3-0.3,0.5
					c18.8,10.2,41.1,12.7,61.6,6.8C702.8,1540.4,702.7,1539.8,702.4,1539.9L702.4,1539.9z"/>
			</g>
		</g>
		<g id="XMLID_199_">
			<g id="XMLID_200_">
				<path id="XMLID_201_" class="st15" d="M887.8,1675.8c-9.1,14.9-17.3,30.4-26,45.5c-8.4,14.5-19.2,28.1-34.4,35.9
					c-0.3,0.2-0.1,0.7,0.3,0.5c14.5-7.5,25.2-20.3,33.4-34.1c9.4-15.7,17.7-31.9,27.2-47.5C888.5,1675.9,888,1675.5,887.8,1675.8
					L887.8,1675.8z"/>
			</g>
		</g>
		<g id="XMLID_196_">
			<g id="XMLID_197_">
				<path id="XMLID_198_" class="st15" d="M718.6,1810.1c26.2,27.3,61.9,45,97.2,57.5c10.1,3.6,20.4,6.7,30.9,9.4
					c0.4,0.1,0.6-0.5,0.2-0.6c-23.3-6-46.1-14.2-67.7-24.8c-22-10.8-43.1-24.2-60.1-41.9C718.8,1809.4,718.3,1809.8,718.6,1810.1
					L718.6,1810.1z"/>
			</g>
		</g>
	</g>
</g>
<g id="XMLID_178_">
	<g id="XMLID_192_">
		<path id="XMLID_193_" class="st6" d="M651.1,1715.2c-8.4-9.1-12.7-9-16.7-5.7c-4,3.3-5.7,8.6-0.9,15.5
			c11.5,16.8,32.7,29,35.4,26.8C670.7,1750.1,662.8,1727.8,651.1,1715.2z"/>
	</g>
	<g id="XMLID_179_">
		<g id="XMLID_189_">
			<g id="XMLID_190_">
				<path id="XMLID_191_" class="st15" d="M670.9,1753.7c-14.6-11.9-22.3-30.1-37.4-41.5c-0.1-0.1,0.1-0.3,0.2-0.2
					c15,11.4,22.8,29.6,37.4,41.5C671.2,1753.6,671,1753.8,670.9,1753.7L670.9,1753.7z"/>
			</g>
		</g>
		<g id="XMLID_186_">
			<g id="XMLID_187_">
				<path id="XMLID_188_" class="st15" d="M650.6,1730.8c2.6-2.8,4.3-7,4.3-10.8c0-0.2,0.3-0.2,0.3,0c0,3.9-1.7,8.2-4.4,11
					C650.7,1731.2,650.5,1731,650.6,1730.8L650.6,1730.8z"/>
			</g>
		</g>
		<g id="XMLID_183_">
			<g id="XMLID_184_">
				<path id="XMLID_185_" class="st15" d="M645.6,1724.2c-4.3,1-8.9,0.6-13-0.7c-0.2-0.1-0.1-0.3,0.1-0.3c4.1,1.2,8.7,1.7,12.9,0.7
					C645.7,1723.9,645.8,1724.2,645.6,1724.2L645.6,1724.2z"/>
			</g>
		</g>
		<g id="XMLID_180_">
			<g id="XMLID_181_">
				<path id="XMLID_182_" class="st15" d="M653.1,1717.7c-0.5,4-1.8,7.7-3.9,11.2c-0.1,0.2-0.3,0-0.2-0.1c2.1-3.4,3.4-7.1,3.9-11.1
					C652.9,1717.5,653.2,1717.6,653.1,1717.7L653.1,1717.7z"/>
			</g>
		</g>
	</g>
</g>
<g id="XMLID_141_">
	<g id="XMLID_176_">
		<path id="XMLID_177_" class="st22" d="M908.7,1963.4c0,0-66.9-66.4-45.9-120.8c20.9-54.3,51.7-37.9,57.2-80.1
			c5.5-42.2,47.1-53.5,75.4-48.3c28.3,5.1,70.8-48.6,103.5-28.4c32.7,20.2-25.8,52.6-18.9,79.2c6.9,26.5-0.2,56.2-38.6,72
			C1002.9,1852.7,1059.4,1937,908.7,1963.4z"/>
	</g>
	<g id="XMLID_173_">
		<g id="XMLID_174_">
			<path id="XMLID_175_" class="st10" d="M1099.5,1687.9c-18.6,9.5-35.9,21.5-52.1,34.6c-22.2,18-42.5,38.5-60.2,60.9
				c-18.4,23.4-34.1,49-46,76.4c-11.1,25.5-19.8,52.1-26.5,79.1c-6,24.3-10.9,49.7-10.4,74.9c0.1,2.6,0.2,5.3,0.4,7.9
				c0.1,0.9-1.3,1.1-1.4,0.2c-2.1-24.1,2.2-48.8,7.4-72.2c6.1-27.6,14.6-54.8,25.3-81.1c11.1-27.3,25.5-53,43-76.8
				c17.4-23.6,37.6-45.1,59.9-64.2c16.8-14.3,34.9-27.4,54.3-38.1c1.8-1,3.7-2,5.5-2.9C1099.7,1686.3,1100.3,1687.5,1099.5,1687.9
				L1099.5,1687.9z"/>
		</g>
	</g>
	<g id="XMLID_142_">
		<g id="XMLID_170_">
			<g id="XMLID_171_">
				<path id="XMLID_172_" class="st10" d="M874.4,1821.9c3.1,34.3,26.7,61.1,48.8,85.5c0.2,0.2-0.1,0.5-0.3,0.3
					c-22.1-24.5-45.9-51.3-48.9-85.7C874,1821.7,874.4,1821.6,874.4,1821.9L874.4,1821.9z"/>
			</g>
		</g>
		<g id="XMLID_167_">
			<g id="XMLID_168_">
				<path id="XMLID_169_" class="st10" d="M934.1,1875.3c15.9,2.3,32.2,0.1,47.7-3.9c15.7-4.1,30.9-10.1,45.3-17.7
					c0.2-0.1,0.4,0.3,0.2,0.4c-14.4,7.6-29.6,13.7-45.4,17.7c-15.5,4-31.8,6.2-47.8,3.9C933.8,1875.7,933.9,1875.2,934.1,1875.3
					L934.1,1875.3z"/>
			</g>
		</g>
		<g id="XMLID_164_">
			<g id="XMLID_165_">
				<path id="XMLID_166_" class="st10" d="M985.7,1712.8c-6.5,22.6-4.9,47.1,1.8,69.5c0.1,0.3-0.3,0.3-0.4,0.1
					c-6.7-22.4-8.3-47-1.8-69.7C985.4,1712.4,985.8,1712.5,985.7,1712.8L985.7,1712.8z"/>
			</g>
		</g>
		<g id="XMLID_161_">
			<g id="XMLID_162_">
				<path id="XMLID_163_" class="st10" d="M970.8,1714.3c-3,13.6-4.2,27.5-3.4,41.4c0.8,13.5,2.8,27.5,10.6,38.9
					c0.2,0.2-0.2,0.5-0.3,0.3c-7.7-11.3-9.8-24.9-10.6-38.3c-0.9-14.2,0.3-28.4,3.3-42.3C970.5,1714,970.9,1714.1,970.8,1714.3
					L970.8,1714.3z"/>
			</g>
		</g>
		<g id="XMLID_158_">
			<g id="XMLID_159_">
				<path id="XMLID_160_" class="st10" d="M957.4,1826.7c34.9,2.8,70.7-6.2,100.5-24.4c8.6-5.2,16.6-11.2,24.1-17.9
					c0.2-0.2,0.5,0.1,0.3,0.3c-26.2,23.7-60.5,38.4-95.6,42.1c-9.7,1-19.6,1.1-29.3,0.4C957.1,1827.1,957.2,1826.7,957.4,1826.7
					L957.4,1826.7z"/>
			</g>
		</g>
		<g id="XMLID_155_">
			<g id="XMLID_156_">
				<path id="XMLID_157_" class="st10" d="M965.7,1814.1c33,0.7,65.8-10.4,93.4-28.1c7.6-4.9,14.9-10.4,21.8-16.4
					c0.2-0.2,0.5,0.1,0.3,0.3c-24.8,21.7-55.8,37.2-88.4,42.6c-8.9,1.5-18,2.2-27,2C965.4,1814.5,965.4,1814.1,965.7,1814.1
					L965.7,1814.1z"/>
			</g>
		</g>
		<g id="XMLID_152_">
			<g id="XMLID_153_">
				<path id="XMLID_154_" class="st10" d="M1031.3,1703c-2.8,10-1.5,21.2,1.9,30.8c0.1,0.3-0.3,0.4-0.4,0.2c-3.5-9.8-4.8-21-2-31.1
					C1030.9,1702.6,1031.3,1702.7,1031.3,1703L1031.3,1703z"/>
			</g>
		</g>
		<g id="XMLID_149_">
			<g id="XMLID_150_">
				<path id="XMLID_151_" class="st10" d="M1058.3,1712.9c13.8,6.6,29.9,7.6,44.4,2.6c0.3-0.1,0.4,0.3,0.2,0.4
					c-14.6,5-30.8,4.1-44.8-2.6C1057.9,1713.2,1058.1,1712.8,1058.3,1712.9L1058.3,1712.9z"/>
			</g>
		</g>
		<g id="XMLID_146_">
			<g id="XMLID_147_">
				<path id="XMLID_148_" class="st10" d="M909.8,1787.6c4.7,11.7,8.7,23.7,13.1,35.5c4.3,11.4,10.3,22.4,20.2,29.7
					c0.2,0.2,0,0.5-0.2,0.3c-9.5-7.1-15.5-17.5-19.7-28.3c-4.8-12.3-8.8-24.9-13.7-37.1C909.3,1787.5,909.7,1787.3,909.8,1787.6
					L909.8,1787.6z"/>
			</g>
		</g>
		<g id="XMLID_143_">
			<g id="XMLID_144_">
				<path id="XMLID_145_" class="st10" d="M1014.2,1903.6c-22,16.3-49.5,24.7-76.2,29.3c-7.7,1.3-15.4,2.3-23.1,3
					c-0.3,0-0.3-0.4-0.1-0.4c17.3-1.5,34.5-4.6,51.2-9.5c17-5,33.6-12.1,47.9-22.7C1014.2,1903.1,1014.5,1903.4,1014.2,1903.6
					L1014.2,1903.6z"/>
			</g>
		</g>
	</g>
</g>
<g id="XMLID_104_">
	<g id="XMLID_139_">
		<path id="XMLID_140_" class="st22" d="M788.5,1913.2c0,0,29.3-52.4,6.9-82c-22.4-29.6-38.3-14.1-49.1-39
			c-10.8-24.8-38.2-24.5-54.6-16.4c-16.4,8.1-51.9-17.3-68.3,0.8c-16.4,18.1,25.1,27.7,25.5,45.1c0.4,17.5,10,34.4,36.3,37.3
			C711.4,1862,691.7,1923.5,788.5,1913.2z"/>
	</g>
	<g id="XMLID_105_">
		<g id="XMLID_136_">
			<g id="XMLID_137_">
				<path id="XMLID_138_" class="st10" d="M623.4,1778.1c13,2.5,25.8,6.9,38,12c16.8,7.1,32.8,16.1,47.5,26.7
					c15.4,11.1,29.5,24,41.6,38.7c11.3,13.7,21.3,28.4,30.1,43.8c8,13.8,15.4,28.5,19.5,44c0.4,1.6,0.8,3.3,1.1,4.9
					c0.1,0.6,1,0.5,0.9-0.1c-3-15.1-9.9-29.5-17.2-42.9c-8.6-15.8-18.6-31-29.7-45.2c-11.6-14.8-24.9-28-39.8-39.4
					c-14.8-11.4-31-21-48-28.7c-12.8-5.8-26.2-10.7-39.9-13.8c-1.3-0.3-2.6-0.6-3.9-0.8C622.9,1777.2,622.8,1778,623.4,1778.1
					L623.4,1778.1z"/>
			</g>
		</g>
		<g id="XMLID_133_">
			<g id="XMLID_134_">
				<path id="XMLID_135_" class="st10" d="M784.7,1820.6c4.2,21.5-5.6,42.1-14.9,60.9c-0.1,0.2,0.2,0.3,0.2,0.1
					c9.3-18.9,19.1-39.5,14.9-61.1C784.9,1820.4,784.6,1820.4,784.7,1820.6L784.7,1820.6z"/>
			</g>
		</g>
		<g id="XMLID_130_">
			<g id="XMLID_131_">
				<path id="XMLID_132_" class="st10" d="M757.5,1863.8c-9.3,4.2-19.7,5.7-29.9,6c-10.3,0.3-20.7-0.8-30.8-2.9
					c-0.2,0-0.2,0.2,0,0.3c10.1,2.1,20.5,3.2,30.9,2.9c10.2-0.3,20.6-1.8,29.9-6C757.8,1864,757.7,1863.7,757.5,1863.8L757.5,1863.8
					z"/>
			</g>
		</g>
		<g id="XMLID_127_">
			<g id="XMLID_128_">
				<path id="XMLID_129_" class="st10" d="M697.4,1773.4c8,12.7,11.3,28,11.1,42.8c0,0.2,0.3,0.1,0.3,0c0.2-14.9-3.2-30.3-11.1-43
					C697.5,1773.1,697.3,1773.2,697.4,1773.4L697.4,1773.4z"/>
			</g>
		</g>
		<g id="XMLID_124_">
			<g id="XMLID_125_">
				<path id="XMLID_126_" class="st10" d="M706.8,1771.7c4.2,7.8,7.4,16.1,9.3,24.7c1.9,8.4,3.1,17.3,0.3,25.7
					c-0.1,0.2,0.2,0.3,0.2,0.1c2.8-8.3,1.6-17-0.2-25.3c-2-8.8-5.2-17.4-9.5-25.3C706.9,1771.5,706.7,1771.5,706.8,1771.7
					L706.8,1771.7z"/>
			</g>
		</g>
		<g id="XMLID_121_">
			<g id="XMLID_122_">
				<path id="XMLID_123_" class="st10" d="M734.7,1838.1c-20.9,7.9-44.3,8.6-65.8,2.7c-6.2-1.7-12.2-3.9-17.9-6.8
					c-0.2-0.1-0.3,0.2-0.1,0.2c20.2,9.9,43.8,12.9,65.9,9c6.1-1.1,12.2-2.7,18-4.9C735,1838.3,734.9,1838.1,734.7,1838.1
					L734.7,1838.1z"/>
			</g>
		</g>
		<g id="XMLID_118_">
			<g id="XMLID_119_">
				<path id="XMLID_120_" class="st10" d="M727.4,1831.9c-20.1,6.2-42.1,5.2-62.1-0.8c-5.5-1.7-11-3.7-16.2-6.2
					c-0.2-0.1-0.3,0.2-0.1,0.2c19,8.9,40.7,13,61.6,10.6c5.7-0.7,11.4-1.8,16.9-3.5C727.7,1832.1,727.6,1831.8,727.4,1831.9
					L727.4,1831.9z"/>
			</g>
		</g>
		<g id="XMLID_115_">
			<g id="XMLID_116_">
				<path id="XMLID_117_" class="st10" d="M667.8,1775.4c3.5,5.6,4.6,12.7,4.2,19.2c0,0.2,0.3,0.2,0.3,0c0.4-6.6-0.8-13.7-4.3-19.4
					C667.9,1775.1,667.7,1775.2,667.8,1775.4L667.8,1775.4z"/>
			</g>
		</g>
		<g id="XMLID_112_">
			<g id="XMLID_113_">
				<path id="XMLID_114_" class="st10" d="M653,1786.2c-7.3,6.5-17,9.9-26.7,9.4c-0.2,0-0.2,0.3,0,0.3c9.8,0.5,19.6-2.9,26.9-9.4
					C653.3,1786.3,653.1,1786.1,653,1786.2L653,1786.2z"/>
			</g>
		</g>
		<g id="XMLID_109_">
			<g id="XMLID_110_">
				<path id="XMLID_111_" class="st10" d="M757,1805.8c-0.8,8-1.1,16-1.8,24.1c-0.6,7.7-2.4,15.5-7.1,21.8c-0.1,0.1,0.1,0.3,0.2,0.2
					c4.6-6,6.4-13.4,7.1-20.8c0.8-8.4,1-16.8,1.9-25.1C757.3,1805.7,757,1805.6,757,1805.8L757,1805.8z"/>
			</g>
		</g>
		<g id="XMLID_106_">
			<g id="XMLID_107_">
				<path id="XMLID_108_" class="st10" d="M713.4,1895.2c16.3,6.1,34.6,6.4,51.8,4.6c4.9-0.5,9.8-1.3,14.7-2.2c0.2,0,0.1-0.3,0-0.3
					c-10.9,2.1-21.9,3.3-33,3.2c-11.3-0.1-22.7-1.5-33.3-5.5C713.4,1894.9,713.3,1895.1,713.4,1895.2L713.4,1895.2z"/>
			</g>
		</g>
	</g>
</g>
<g id="XMLID_102_">
	<path id="XMLID_103_" class="st21" d="M757.9,2231.8h140.7c29.3,0,54.2-24.4,58.2-57.1l27-217.6H678.9l29.2,226.2
		C711.8,2211.1,732.9,2231.8,757.9,2231.8z"/>
</g>
<g id="XMLID_100_">
	<path id="XMLID_1_" class="st17" d="M682.5,1975.2h303c7.3,0,13.2-5.9,13.2-13.2v-8.3c0-7.3-5.9-13.2-13.2-13.2h-303
		c-7.3,0-13.2,5.9-13.2,13.2v8.3C669.3,1969.3,675.2,1975.2,682.5,1975.2z"/>
</g>
<g id="XMLID_98_" class="st14">
	<path id="XMLID_99_" class="st10" d="M973.9,1975.2c0,0-38.9,14.9-139.9,16.2c-101,1.3-137.6-16.2-137.6-16.2H973.9z"/>
</g>
<g id="XMLID_85_">
	<g id="XMLID_93_">
		<g id="XMLID_96_">
			<path id="XMLID_97_" class="st15" d="M1984.8,1294.4h-414.3l37.4-260.9c1.4-9.4,9.4-16.5,19-16.5h379.6c9.6,0,16.9,8.5,15.6,18
				L1984.8,1294.4z"/>
		</g>
		<g id="XMLID_94_">
			<path id="XMLID_95_" class="st15" d="M1616,1294.4h-187l0,0c0-9.9,8.1-18,18-18h169V1294.4z"/>
		</g>
	</g>
	<g id="XMLID_88_">
		<g id="XMLID_89_">
			<path id="XMLID_90_" class="st4" d="M1801.4,1190.7c-5,0-9.5-2.1-12.6-6c-4.3-5.4-5.5-13.4-3.5-22c3.5-15.1,16.3-27.4,28.4-27.4
				c5,0,9.5,2.1,12.6,6c4.3,5.4,5.5,13.4,3.5,22l0,0C1826.3,1178.4,1813.5,1190.7,1801.4,1190.7z M1813.7,1138.1
				c-10.9,0-22.4,11.3-25.7,25.2c-1.8,7.8-0.7,14.9,3,19.6c2.6,3.2,6.1,4.9,10.3,4.9c10.9,0,22.4-11.3,25.7-25.2l0,0
				c1.8-7.8,0.7-14.9-3-19.6C1821.5,1139.8,1818,1138.1,1813.7,1138.1z"/>
		</g>
	</g>
	<g id="XMLID_86_">
		<path id="XMLID_87_" class="st6" d="M1712.1,1294.4c0,0,235.9,4.3,297.2-170.5l-24.5,170.5L1712.1,1294.4z"/>
	</g>
</g>
<g id="XMLID_14_">
	<g id="XMLID_439_">
		<path id="XMLID_440_" class="st18" d="M1367.1,478.3c0,0-14-4.2-25.2,4.2c0,0,9.6-2.4,19.3,1.8
			C1371,488.5,1367.1,478.3,1367.1,478.3z"/>
	</g>
	<g id="XMLID_437_">
		<path id="XMLID_438_" class="st18" d="M1375.4,483.4c0,0-14.3-3.1-20.5-15.9c0,0,7.4,6.8,17.9,7.7
			C1383.4,476.2,1375.4,483.4,1375.4,483.4z"/>
	</g>
	<g id="XMLID_435_">
		<path id="XMLID_436_" class="st1" d="M1546.8,498.5c0,0,6.8,42,2.5,54.3c-4.2,12.3-18.5-49-18.5-49L1546.8,498.5z"/>
	</g>
	<g id="XMLID_416_">
		<path id="XMLID_417_" class="st5" d="M1405.9,688.8c4.4,14.1,52.8,25.5,72.1,27.7c12.8,1.4,32.3,4.5,43.2-3.3
			c9.2-6.7,35.2-63.7,29.1-93.1c-1.2-5.7-2.8-29.6-0.5-45.7c3.8-26.8-14.1-71-14.1-71c-73.8-54.6-138.2,22.5-143.6,52.2
			C1386.8,585.2,1388.3,631.9,1405.9,688.8z"/>
	</g>
	<g id="XMLID_414_">
		<path id="XMLID_415_" class="st2" d="M1440.2,564.4c-3.3,1.8-4.7-1-2.4-4c5.5-7.3,12.6-15.2,36.3-16.4
			c22.2-1.2,24.8,11.2,12.7,13.5C1476.1,559.4,1462.1,552.2,1440.2,564.4z"/>
	</g>
	<g id="XMLID_412_">
		<path id="XMLID_413_" class="st2" d="M1545.5,568.1c1.6,1.3,5.1-4.6,4.5-7c-1.3-5.6-5.7-11.5-18.2-11.1c-13.8,0.5-16.6,8-9.6,9.1
			C1528.4,560.1,1535.1,559.6,1545.5,568.1z"/>
	</g>
	<g id="XMLID_410_">
		<path id="XMLID_411_" class="st2" d="M1518.5,590.7c2.6-3.1,7.7-8.5,13.7-8.8c1.3-0.1,2.6,0,4,0.5c2.3,0.8,5.3,3.5,8.5,5.5
			c1.1,0.7-13.3-19.7-25-0.9c-0.4,0.6-0.8,1.3-1.2,2.1c-0.4,0.8-0.9,1.7-1.3,2.6C1516.1,593.9,1516.7,592.8,1518.5,590.7z"/>
	</g>
	<g id="XMLID_408_">
		<path id="XMLID_409_" class="st2" d="M1521.4,585.9c0,0.5,0,2.5,0.5,4.4c0.4,1.3,1.3,2.9,2.8,4c1.8,1.4,5.4,2,7.5,1.2
			c2.2-0.8,4.2-1.8,5.5-3.7c1.5-2.4,1.7-6.3-0.1-8.5c-0.6-0.7-1.1-1.4-1.5-1.9c-0.4-0.5-0.6-0.8-0.6-0.8l-6.6,1.3l-3.5,0.2l-1.3,0.4
			l-0.9,1.4C1522.9,584.7,1521.8,585.2,1521.4,585.9z"/>
	</g>
	<g id="XMLID_406_">
		<path id="XMLID_407_" class="st2" d="M1456.4,590.4c0,5.2,4,9.4,8.9,9.4s8.9-4.2,8.9-9.4c0-1.7-0.4-3.3-1.2-4.7
			c-0.7-1.3-1.8-2.5-3-3.3c-3.4,0-6.7,0-9.8,0.2c-1.8,1.3-3.1,3.2-3.6,5.5C1456.4,588.9,1456.4,589.6,1456.4,590.4z"/>
	</g>
	<g id="XMLID_404_">
		<path id="XMLID_405_" class="st2" d="M1438,589.5c-1.4,3.9,7.5-9.7,28.2-5.4c5.1,1,10.1,4.2,14.2,7.5c1.5,1.2,1.6-0.7,0.2-2
			c-5-5.1-9.8-8.7-17.8-9.5C1449.2,578.6,1438.5,587.9,1438,589.5z"/>
	</g>
	<g id="XMLID_401_">
		<g id="XMLID_402_">
			<path id="XMLID_403_" class="st19" d="M1511.7,577.6c-6.3,3.2-9.3,10.3-9.3,17.4c0,7.9,4,15.1,8.3,21.3
				c2.9,4.2,10.2,10.7,7.5,16.7c-1.2,2.6-4.1,3.9-6.4,5c-3.3,1.6-6.8,2.7-10.4,3.4c-1.1,0.2-1.5-1.5-0.4-1.7c4-0.8,7.9-2.1,11.6-4
				c3.1-1.6,5.4-3.8,4-7.8c-0.7-2.1-2.1-3.8-3.4-5.5c-4.1-5.4-8.2-11-10.6-17.6c-3.7-10.1-1.9-23.7,8.2-28.8
				C1511.8,575.6,1512.7,577.1,1511.7,577.6L1511.7,577.6z"/>
		</g>
	</g>
	<g id="XMLID_396_">
		<path id="XMLID_397_" class="st2" d="M1348.2,600.8c10.3,38.2,49.7,58.1,49.7,58.1c4.3-24.5-5.5-73.1,0-73
			c5.5,0.1,20.5,17.8,19.1,9.1c-1.5-8.8-9.7-21.6,1.2-40.5c10.9-18.9,1.5-42,1.5-42s0.1,0,0.2,0.1c0,0,0.1,0,0.2,0.1
			c2,0.9,4.2,1.7,6.6,2.3c0,0,0,0,0.1,0c6.5,1.8,14.4,2.8,22.9,3.2c7.5,0.4,15.5,0.3,23.3-0.1c8.4-0.5,16.7-1.4,24.1-2.6
			c7-1.1,13.3-2.5,18.2-4.1c3-1,5.7-1.6,8-1.9c1.9-0.3,3.6-0.4,5.1-0.4c10.6,0.1,11.9,6.8,11.9,6.8c16-22.8,12.9-38.2,9-52.5
			c-6.9-25.6-27.1-38-27.1-38c-5.3,9.1-15.7,10.5-15.7,10.5c0.7-2.1,1.1-4.2,1.3-6c0.6-6.2-1.4-10.5-1.6-10.9c0,0,0,0,0,0
			s-21.5,20.7-73.3,14.6c-70.7-8.2-69.7,44.2-69.7,44.2C1328.5,498.5,1337.9,562.5,1348.2,600.8z"/>
	</g>
	<g id="XMLID_387_">
		<g id="XMLID_394_">
			<path id="XMLID_395_" class="st5" d="M1413.8,601.7c0,0-17-27.3-32.9-14.9c-15.9,12.4,0.4,35.3,6.5,44c6.6,9.4,10.4,9.5,21.9,6.4
				C1420.9,634.2,1413.8,601.7,1413.8,601.7z"/>
		</g>
		<g id="XMLID_391_">
			<g id="XMLID_392_">
				<path id="XMLID_393_" class="st5" d="M1410.1,634.9c-3.8,6.9-12.7,6.5-18.2,2.2c-3.4-2.7-5.9-6.5-8.1-10.3
					c-2.7-4.5-5.3-9.2-7.1-14.2c-3.1-8.3-4.6-19.7,3.1-25.9c7.5-6.1,17.6-3.2,23.6,3.6c0.8,0.9-0.5,2.2-1.3,1.3
					c-5.6-6.3-15.3-9.1-22-2.8c-6.7,6.4-4.1,17.7-0.8,25.2c2.8,6.5,6.5,13.7,11.2,18.9c4.5,5.1,14,8.5,18.2,0.9
					C1409.1,632.9,1410.7,633.9,1410.1,634.9L1410.1,634.9z"/>
			</g>
		</g>
		<g id="XMLID_388_">
			<g id="XMLID_389_">
				<path id="XMLID_390_" class="st12" d="M1391.6,592.1c2.7,1.1,5.3,2.7,6.8,5.4c1.8,3.1,1.1,5.6,0.2,8.8
					c-1.7,6.1,4.2,7.3,7.1,11.2c1.7,2.2,2.1,4.9,0.8,7.3c-0.6,1.1-2.2,0.1-1.6-1c3.2-5.7-7.6-9-8.6-14.3c-0.4-2.2,0.7-3.7,1.2-5.7
					c1.2-4.9-2.8-8.3-6.6-9.9C1390,593.5,1390.5,591.7,1391.6,592.1L1391.6,592.1z"/>
			</g>
		</g>
	</g>
	<g id="XMLID_385_">
		<path id="XMLID_386_" class="st1" d="M1363.1,477.7c11.1,24.3,56.6,34.7,56.6,34.7s0.1,0,0.2,0.1c0,0,0.1,0,0.2,0.1
			c0.9,0.3,3.2,1.2,6.6,2.3c0,0,0,0,0.1,0c6.5,1.8,14.4,2.8,22.9,3.2c7.5,0.4,15.5,0.3,23.3-0.1c8.4-0.5,16.7-1.4,24.1-2.6
			c7-1.1,13.2-3.1,18.2-4.1c23.2-4.4,0.2-40.1,0.2-40.1c-7.7,12.7-19.6,14.2-19.6,14.2c8.1-13.2-4.5-28.9-4.5-28.9
			c-12.2,23.3-35.3,9.1-35.3,9.1s12.1-2.8,18.5-12.5c10.2-15.3,2.5-28.4,2.5-28.4s-11.6,14.3-44.2,8.7
			C1363.1,421.6,1363.1,477.7,1363.1,477.7z"/>
	</g>
	<g id="XMLID_383_">
		<path id="XMLID_384_" class="st1" d="M1468.9,423.7c0,0-9.8,15.9-30.3,15.1l-1-4.6C1437.6,434.2,1454.8,434.3,1468.9,423.7z"/>
	</g>
	<g id="XMLID_381_">
		<path id="XMLID_382_" class="st1" d="M1513,421c0,0-1.3,14.6-10.6,17.8v-4.5C1502.4,434.3,1508.8,431.5,1513,421z"/>
	</g>
	<g id="XMLID_379_">
		<path id="XMLID_380_" class="st1" d="M1529,471.5c0,0,9.9,35-8.5,38.2l1.7-12.7C1522.2,497,1530.9,488.9,1529,471.5z"/>
	</g>
	<g id="XMLID_377_">
		<path id="XMLID_378_" class="st1" d="M1500.9,459.7c0,0,3.2,21.4-5.3,27.4s-7.2-3.6-7.2-3.6S1499.3,477.3,1500.9,459.7z"/>
	</g>
	<path id="XMLID_84_" class="st2" d="M1500.4,646.9c0,0-17.6-2.5-26.1,3.3s-35.9,17.4-45.1-11.2c-9.2-28.7-12.2-44.1-12.2-44.1
		l-6.7-2.8c0,0-15.4,37.5-11.3,72.7c3.9,34,36.5,57.4,68.2,61.4c31.8,4,49.1,0,67.1-24.6c18.4-25.1,16.9-69.6,16.9-69.6
		s-12.2,36.6-25.6,37.4C1512.9,670.1,1515,647.1,1500.4,646.9z"/>
	<ellipse id="XMLID_83_" class="st19" cx="1490.5" cy="669.4" rx="15.4" ry="7.9"/>
</g>
<g id="XMLID_81_">
	<path id="XMLID_498_" class="st10" d="M341.5,1423.8c22.9,0,45.8,0.4,68.6-0.1c14.8-0.3,25.5,11.4,25.3,25.3
		c-0.4,27.6-0.1,55.3-0.1,82.9c0,15.1-9.9,25-25.1,25c-28,0-56-0.1-84,0.1c-2.7,0-5.8,1-8.1,2.5c-11.9,7.7-23.6,15.7-35.5,23.4
		c-1.5,1-4.2,1.8-5.5,1.1c-1.3-0.7-2.2-3.3-2.2-5.2c-0.3-5.7-0.2-11.5-0.1-17.2c0-3-1.3-4.4-4.3-4.7c-14.6-1.4-22.9-10.6-23-25.2
		c0-27.6,0.3-55.3-0.1-82.9c-0.2-14.1,11-25.2,24.8-25C295.2,1424.1,318.4,1423.8,341.5,1423.8z M294.5,1459.1
		c-10.9-0.1-19.7,8.5-19.8,19.2c-0.1,10.6,8.9,19.7,19.5,19.8c10.7,0.1,19.6-8.7,19.7-19.4C314,1467.9,305.4,1459.2,294.5,1459.1z
		 M388.4,1459.1c-11,0-19.6,8.5-19.6,19.4c0,10.7,8.8,19.6,19.5,19.6c10.6,0,19.6-8.9,19.7-19.6
		C408,1467.8,399.2,1459.1,388.4,1459.1z M341.7,1521.7c8-0.4,15.8-2.1,21.7-8.8c1.7-1.9,2.1-4,0-5.8c-2-1.8-3.9-1.1-5.8,0.5
		c-2,1.7-4.2,3.7-6.6,4.4c-9.5,2.8-18.7,3.1-26.6-4.7c-0.9-0.9-3.7-0.9-5.1-0.2c-1.9,1-2,3.3-0.6,5.1c1.1,1.3,2.3,2.6,3.6,3.6
		C328,1520.1,334.4,1521.4,341.7,1521.7z"/>
	<path id="XMLID_495_" class="st0" d="M345.2,1415.7c-2.8,0-5.1,0-7.8,0c0-5.3-0.2-10.4,0.1-15.5c0.1-2.9-0.6-4.5-3.6-5.6
		c-8.2-3.1-13.2-11.7-12-19.8c1.5-9.9,8.3-16.8,17.7-17.6c8.8-0.8,17,4.4,20.1,12.8c3.7,10-1.2,20.9-11.4,24.9
		c-2.6,1-3.2,2.3-3.1,4.8C345.4,1404.9,345.2,1410.1,345.2,1415.7z"/>
	<path id="XMLID_492_" class="st0" d="M239.1,1513.3c-9.4,1.4-15.2-3.4-15.2-12.8c0-6.6,0-13.2,0-19.8c0-9.9,5-14.5,15.2-13.9
		C239.1,1482.3,239.1,1497.8,239.1,1513.3z"/>
	<path id="XMLID_489_" class="st0" d="M443.4,1513.4c0-15.6,0-30.9,0-46.2c8-2,15.1,3.1,15.3,11.1c0.2,7.9,0.2,15.9,0,23.8
		C458.6,1510,452.8,1514.2,443.4,1513.4z"/>
	<path id="XMLID_486_" class="st0" d="M294.4,1490.1c-6.5,0-11.7-4.9-11.8-11.4c-0.1-6.5,5.3-12,11.7-12c6.4,0,11.9,5.6,11.8,12
		C306,1485.1,300.9,1490.1,294.4,1490.1z"/>
	<path id="XMLID_101_" class="st0" d="M388.5,1490.1c-6.7,0-11.9-5.1-11.9-11.6c0-6.3,5.3-11.7,11.6-11.8
		c6.4-0.1,11.9,5.4,11.9,11.9C400,1485,395,1490,388.5,1490.1z"/>
</g>
<g id="XMLID_2_">
	<path id="XMLID_23_" class="st10" d="M456.5,836.5c-2.7-12.8-5.2-24.9-7.8-37c-4.8-22.8-9.6-45.6-14.3-68.4
		c-1.6-7.9-5.8-11.3-14-11.4c-7.2,0-14.4,0-21.5-0.2c-1.8,0-3.7-0.4-5.2-1.2c-2.9-1.6-4.2-4.4-3.4-7.8c0.8-3.4,3.1-5.5,6.8-5.5
		c9.4,0,18.8-0.2,28.1,0.3c10.4,0.5,20,9,22.7,19.4c1.4,5.4,2.6,10.9,3.5,16.4c0.4,2.4,1.4,2.9,3.6,2.9c7.5-0.1,15,0,22.6,0
		c-0.1,34.6,13.7,61.4,44.1,77.7c30.3,16.2,60.2,12.7,88.9-6.7c-2.2,10.5-4.4,20.6-6.6,30.8c-0.7,3-2.9,4.7-5.9,5.2
		c-1.5,0.2-3.1,0.3-4.7,0.3c-46.5,0-93,0-139.4,0c-6.8,0-10.2,2.3-10.3,7.1c-0.1,4.8,3.6,7.5,10.4,7.5c47,0,93.9,0,140.9,0
		c5.7,0,8.7,2,9.2,6.1c0.5,4.1-1.6,7.1-5.6,8.1c-1.2,0.3-2.4,0.4-3.6,0.4c-47.4,0-94.9,0-142.3,0c-9.7,0-17.3-3.9-21.5-12.9
		c-6.6-14.1,3.3-30,18.8-30.8C451.8,836.4,453.8,836.5,456.5,836.5z"/>
	<path id="XMLID_5_" class="st0" d="M560.3,811.9c-35.1-0.1-63.2-28.3-63.1-63.4c0.1-35.1,28.4-63.2,63.5-63.1
		c34.9,0.1,63.2,28.7,63,63.6C623.5,783.9,595.2,812,560.3,811.9z M550.6,738.9c-4.8,0-9.1-0.3-13.3,0.1c-2.8,0.3-5.8,1.2-8,2.8
		c-3.3,2.5-3.7,6.5-2.4,10.3c1.4,4.1,4.7,6.2,8.9,6.3c4.8,0.1,9.6,0,14.7,0c0,5.2-0.1,9.9,0,14.7c0.2,5.7,4.3,9.6,9.8,9.6
		c5.7,0,9.5-4.1,9.7-10.5c0.1-4.5,0-8.9,0-13.7c5,0,9.6,0.1,14.2,0c4.5-0.1,7.9-2.4,9.4-6.3c2.5-6.7-2.2-13-10-13.2
		c-4.4-0.1-8.9,0-13.1,0c-0.3-0.6-0.4-0.7-0.4-0.8c-0.1-4.3,0-8.5-0.2-12.8c-0.2-6.4-4.3-10.8-10-10.6c-5.6,0.1-9.4,4.4-9.5,10.7
		C550.6,729.8,550.6,734.1,550.6,738.9z"/>
	<path id="XMLID_4_" class="st10" d="M506.8,904.5c0,8-6.6,14.6-14.6,14.6c-8,0-14.6-6.6-14.6-14.6c0-8,6.6-14.6,14.6-14.6
		C500.3,889.9,506.8,896.5,506.8,904.5z"/>
	<path id="XMLID_3_" class="st10" d="M555.6,904.5c0-8.2,6.4-14.6,14.5-14.6c8,0,14.6,6.6,14.7,14.6c0,7.9-6.7,14.6-14.6,14.6
		C562,919.1,555.6,912.7,555.6,904.5z"/>
</g>
<g id="XMLID_6_">
	<path id="XMLID_24_" class="st10" d="M1188.7,269.5c-14.2-23-34.2-37.4-60.6-42.5c-16.8-3.2-33.2-1.5-49,5.6c5.5,0,10.9,0,16.6,0
		c0,4.9,0,9.5,0,14.3c-14.3,0-28.5,0-43,0c0-14.4,0-28.8,0-43.3c4.7,0,9.3,0,14.2,0c0,5.8,0,11.4,0,17.5c31.3-14,62.2-13.8,92.5,1.4
		c17.7,8.9,31.6,22.2,41.7,39.7C1196.9,264.7,1192.9,267,1188.7,269.5z"/>
	<path id="XMLID_19_" class="st10" d="M1198.7,324.6c-3.4,3.8-6.9,7.6-10.4,11.4c-3.7-3.9-6.8-7.3-9.9-10.5
		c9.8-9.7,19.9-19.8,29.8-29.6c9.7,9.7,19.8,19.8,30,30c-3,2.8-6.4,5.9-10.2,9.4c-3.9-4.1-8.2-8.7-13.2-14
		c-2.6,27.5-13.4,50.1-32.8,68.1c-19.4,18.1-42.7,27.4-69.7,27.8c0-4.8,0-9.5,0-14.5c28.6-0.9,52.1-12.3,69.8-34.9
		C1192.4,355.1,1199.8,335.9,1198.7,324.6z"/>
	<path id="XMLID_7_" class="st0" d="M1056.2,382.7c0-7.1,0-13,0-19.2c4.9,0,9.5,0,14.2,0c0,14.5,0,28.7,0,43.2
		c-14.4,0-28.7,0-43.2,0c0-4.6,0-9.2,0-14.1c5.4,0,10.9,0,16.9,0c-38.1-38.5-45.2-81.5-22.1-130.2c4.7,2.7,8.7,5,12.9,7.5
		c-14.1,26.5-15.7,53.5-3.6,80.9C1036.8,363.1,1044.9,373.6,1056.2,382.7z"/>
</g>
<g id="XMLID_8_">
	<path id="XMLID_28_" class="st0" d="M1935.8,203.6h-125.1c-5.7,0-8.2,2.5-8.2,8.4c0,29.7,0,59.5,0,89.2c0,5.9,2.6,8.6,8.4,8.6
		c7.4,0,14.9-0.1,22.3,0.1c1.4,0,3.3,0.8,4.1,1.9c1.7,2.2-0.3,4.9-3.6,5c-3.3,0.1-6.5,0-9.7,0v31.7c0.3,0.1,0.7,0.2,1,0.3
		c9.6-10.4,19.3-20.9,29.2-31.7c-2.7-0.2-4.8,0.1-6.5-0.6c-1.2-0.5-2.4-2.3-2.4-3.5c0-1,1.6-2.3,2.7-3c0.8-0.5,2-0.2,3-0.2h2.9
		l-0.5-0.2c11.4,0,90.3,3,90.7-38.4c0-19.7,0-39.4,0-59.1C1944.1,206.2,1941.4,203.6,1935.8,203.6z M1898,221.9
		c0-2.6,1.3-4.1,3.9-4.2c3.3-0.1,6.6,0,9.9,0c2.3,0,3.9,1.1,3.8,3.5c0,2.4-1.6,3.4-3.9,3.5c-2,0.1-4.1,0-6.5,0v6.8
		c2.8,0.5,6.8-0.4,6.8,3.9c-0.1,4.2-3.9,3.2-6.7,3.7v6.9c2,0,4,0,5.9,0c2.5,0,4.4,0.9,4.4,3.6c0,2.6-1.8,3.6-4.2,3.6
		c-3.1,0.1-6.2,0.1-9.3,0c-2.7-0.1-4.2-1.6-4.2-4.3C1898,239.9,1898,230.9,1898,221.9z M1872.7,217.9c3-0.4,3.9,1.6,4.3,4.1
		c1,5.5,2,10.9,3,16.4c0.2,0.1,0.4,0.1,0.7,0.2c1-5.2,1.9-10.4,2.9-15.7c0.1-0.7,0.2-1.4,0.4-2.1c0.6-2.1,1.9-3.5,4.2-3
		c2.3,0.5,3.1,2.2,2.7,4.5c-1.1,5.9-2.1,11.7-3.2,17.6c-0.5,2.7-0.9,5.5-1.5,8.2c-0.7,3.2-2.9,5.1-5.7,5.1c-2.7,0-5.2-1.9-5.8-5.1
		c-1.6-8.4-3.1-16.8-4.5-25.2C1869.6,220.6,1869.7,218.3,1872.7,217.9z M1855.6,235c0-4.3,0-8.7,0-13c0-2.4,0.8-4.1,3.4-4.2
		c2.6,0,3.6,1.6,3.6,4c0,9,0,17.9,0,26.9c0,2.4-1.1,4.2-3.5,4.2c-2.6,0-3.6-1.8-3.6-4.4C1855.7,244.1,1855.6,239.5,1855.6,235z
		 M1830.8,221.8c0-2.3,0.9-3.9,3.3-3.9c2.6-0.1,3.6,1.5,3.6,3.9c0,6.8,0,13.6,0,20.4v3.8c2.5,0,4.6-0.1,6.6,0
		c2.2,0.1,3.8,1.1,3.9,3.5c0,2.5-1.6,3.5-3.7,3.6c-3.3,0.1-6.6,0.1-9.9,0c-2.6-0.1-3.9-1.5-3.9-4.2
		C1830.9,239.9,1830.9,230.8,1830.8,221.8z M1906.9,292c-17.1,0-16.6,0-33.8,0h-48.9c-0.7,0-1.4,0-2.2,0c-3.7,0-5.5-1.2-5.3-3.7
		c0.3-3.2,2.6-3.4,5.2-3.4c34.1,0,50.7,0,84.8,0c3.8,0,5.5,1.1,5.5,3.5C1912.3,290.7,1910.5,292,1906.9,292z M1923.8,274.3h-101.2
		c-1,0-2.3,0.3-3-0.2c-1.2-0.9-2.7-2.3-2.7-3.5c0-1.1,1.7-2.4,2.9-3.2c0.8-0.5,2-0.2,3-0.2h100.9c4.4,0,6.1,1,6.2,3.5
		C1929.9,273.2,1928.1,274.3,1923.8,274.3z"/>
	<g id="XMLID_9_">
		<path id="XMLID_27_" class="st10" d="M1995.9,369.4c0,0.2,0,0.5,0,0.7c-0.4,12.3-1.1,13-13.2,13c-6.6,0-13.3,0-19.9,0
			c-3.4,0-6.1,1.4-7.1,4.8c-0.9,2.9-0.2,5.8,2.4,7.5c1.4,0.9,3.4,1.4,5.1,1.4c7.2,0.2,14.5-0.8,21.8-0.8
			c-2.3,7.1-14.3,15.9-29.7,17.9H1939c-17.3-2-30.3-12.8-37-30.1c-11.9-30.8,11.5-64.2,44.5-64.9
			C1973.6,318.3,1996.4,342.2,1995.9,369.4z"/>
		<path id="XMLID_26_" class="st10" d="M1896.5,332c-15.1,22-15.1,48.2-0.4,72.2c-6.8,0-13.7,0.7-20.3-0.4
			c-9.8-1.7-16.1-9.2-16.6-19.1c-0.6-11.1-1.3-22.6,0.3-33.5c1.2-8.1,5.5-15.9,9.2-23.4c1.1-2.1,2.2-4.2,3.4-6.2
			c4.8,0.1,10.7,0.4,17.2-0.1c-2.6,3.3-4.7,6.5-6.3,10.5H1896.5z"/>
		<path id="XMLID_25_" class="st10" d="M2035.7,381.6c-0.1,13.5-9.3,22.7-22.7,22.7c-4.8,0-9.7,0-15.2,0c7.9-11.4,11.5-23,11.5-36.1
			c0-13.2-3.5-25.2-11.5-36.2h13.5c-3-16-32.4-35.7-55.3-37.9c-1.3-0.1-2.5-0.4-3.7-0.4c2.6-4,4.5-8.5,6-13.1
			c35,4.5,58.8,23.9,72.1,56.9c0.6,1.6,1.8,2.9,2.3,4.5c1.2,3.8,2.8,7.7,3,11.6C2036,362.9,2035.8,372.3,2035.7,381.6z"/>
	</g>
</g>
<g id="XMLID_39_">
	<path id="XMLID_57_" class="st10" d="M2631.3,779.3c-2.3-2-4.4-4.1-6.7-5.8c-2.4-1.8-5-3.5-7.7-4.9c-1.2-0.7-1.4-1.4-1.4-2.6
		c0-10.2,0-20.4,0-30.6c0-0.7,0-1.3,0-2.1c-56.2,0-112.3,0-168.5,0c0,36.9,0,73.7,0,110.8c0.9,0,1.7,0,2.5,0c31.6,0,63.3,0,94.9,0
		c1.1,0,1.9,0.1,2.6,1.2c5,7.7,11.5,13.7,19.6,18.1c0.2,0.1,0.4,0.3,1,0.7c-0.9,0-1.4,0.1-1.9,0.1c-39.5,0-78.9,0-118.4,0
		c-7.3,0-13-3.9-15.5-10.6c-0.6-1.7-0.9-3.6-0.9-5.4c-0.1-38.4-0.1-76.7,0-115.1c0-8.9,7.3-15.9,16.4-15.9c40.9,0,81.9,0,122.8,0
		c15,0,29.9,0,44.9,0c9.4,0,16.5,6.9,16.5,16.2c0.1,14.8,0,29.7,0,44.5C2631.4,778.2,2631.3,778.7,2631.3,779.3z"/>
	<path id="XMLID_45_" class="st0" d="M2629.2,840.3c3.2,3.2,6.5,6.4,9.8,9.6c7.8,7.8,15.6,15.6,23.5,23.5c2,2,2,2.9,0,4.9
		c-2.8,2.8-5.6,5.6-8.4,8.4c-1.9,1.9-2.9,1.9-4.8,0c-10.7-10.7-21.3-21.3-32-32c-1-1-1.6-1.1-2.9-0.4c-27.4,16.3-62.7-1.2-66.4-32.9
		c-2.7-22.9,12-43.5,34.5-48.6c23.1-5.2,46.7,9.2,52.4,32.1c3,12,1.3,23.2-4.9,33.9C2629.8,839.2,2629.6,839.6,2629.2,840.3z
		 M2566.4,816c0,14.2,11.4,25.7,25.5,25.8c14.1,0.1,25.7-11.4,25.8-25.5c0.1-14.2-11.4-25.8-25.6-25.8
		C2577.8,790.3,2566.4,801.8,2566.4,816z"/>
	<path id="XMLID_42_" class="st0" d="M2508.2,810.2c0.6-2.7,1.3-5.4,1.7-8.1c1.2-9.6,2.1-19.2,3.4-28.7c0.4-3.2,1.3-6.4,2.2-9.6
		c0.6-2,1.9-3.4,4.2-3.4c2.3,0,3.7,1.3,4.6,3.3c2,4.2,2.3,8.7,2.8,13.2c0.5,4.8,1,9.6,1.5,14.4c0.3-0.1,0.5,0,0.5-0.1
		c1.3-3.3,3.7-4.3,7.1-4c3.3,0.2,6.7,0,10.4,0c-1.1,2-2,3.7-3,5.4c-0.2,0.3-0.8,0.4-1.3,0.4c-1.8,0-3.5,0.1-5.3,0
		c-1.7-0.1-2.7,0.5-3.2,2.2c-0.6,1.9-1.8,3.5-3.8,4.2c-2.7,1-4.9,0.2-5.8-2.4c-0.9-2.9-1.5-6-1.9-9.1c-0.8-5.6-1.3-11.2-1.9-16.7
		c-0.1-0.5-0.2-1-0.8-1.6c-0.3,2.3-0.8,4.5-1,6.8c-1.1,9.4-2,18.8-3.3,28.2c-0.4,3.1-1.4,6.2-2.7,9.1c-2.2,4.8-7.4,5.1-9.9,0.5
		c-1.6-2.9-2.7-6.3-3.4-9.6c-1.5-7.4-2.6-14.8-3.8-22.2c-0.1-0.7-0.3-1.5-0.4-2.2c-0.2,0-0.3,0-0.5,0c-0.4,2.9-0.8,5.9-1.3,8.8
		c-0.8,5.1-1.8,10.1-2.6,15.1c0,0.2-0.1,0.4-0.2,0.5c-0.8,2.1-1.8,4.2-4.4,4.3c-2.6,0.1-4.3-1.5-5.1-3.7c-1.1-3.1-2-6.3-2.7-9.5
		c-0.4-1.9-1.3-2.5-3.2-2.5c-2.7,0.1-5.5,0-8.2,0c-2.1,0-2.4-0.4-2.4-3.1c0-2.4,0.2-2.7,2.3-2.7c3.6,0,7.2,0,10.8,0
		c2.9,0,4.3,0.8,5.2,3.6c0.8,2.4,1.3,4.8,2,7.2c0.1,0.5,0.3,1.1,0.9,1.6c0.3-1.8,0.7-3.7,0.9-5.5c1-6.2,1.9-12.4,3-18.6
		c0.3-1.5,0.9-3,1.8-4.4c1.8-2.9,5.6-2.9,6.9,0.1c1.4,3.4,2.2,7.1,2.9,10.7c1.6,8.3,3,16.7,4.6,25c0.2,1.1,0.8,2.2,1.3,3.3
		C2507.6,810.2,2507.9,810.2,2508.2,810.2z"/>
	<path id="XMLID_40_" class="st10" d="M2530.9,888.3c-8.9,0-17.8,0-26.8,0c-2.7,0-3.1-0.4-3.1-3.1c0-3.3,0-6.6,0-9.9
		c0-2.6,0.4-3,3.1-3c8.7,0,17.4,0,26,0c9.2,0,18.3,0,27.5,0c2.9,0,3.3,0.4,3.3,3.3c0,3.2,0,6.4,0,9.5c0,2.8-0.4,3.2-3.1,3.2
		C2548.9,888.3,2539.9,888.3,2530.9,888.3z"/>
</g>
<g id="XMLID_50_">
	<path id="XMLID_54_" class="st10" d="M2765.9,1455.5c11.4,0,18,6.5,18,17.9c0,32.4,0,64.7,0,97.1c0,11.3-6.6,17.9-18,17.9
		c-43.3,0-86.7,0-130,0c-11.4,0-18-6.5-18-17.9c0-32.2,0.2-64.5-0.1-96.7c-0.1-9.8,8.9-18.6,18.6-18.4c21.6,0.5,43.2,0.2,64.8,0.2
		C2722.7,1455.5,2744.3,1455.5,2765.9,1455.5z M2713.7,1551.3c-1-5.1-2-9.8-2.9-14.6c-0.3-1.4-0.6-2.9-1-4.3
		c-1.4-5.2-1.8-9.3,2.9-14c6.1-6,4.4-16.6-2.1-22.2c-6.4-5.5-17-5.1-22.9,0.9c-6.1,6.3-6.5,15.8-0.1,22.3c3,3,3.9,5.6,2.8,9.6
		c-1,3.5-1.3,7.3-1.9,10.9c-0.6,3.6-1.2,7.3-1.9,11.4C2695.7,1551.3,2704.4,1551.3,2713.7,1551.3z"/>
	<path id="XMLID_51_" class="st0" d="M2825.3,1457.7c10.1,0,19.7,0,29.7,0c0-1.3,0-2.3,0-3.4c0-13.7,0-27.4,0-41.1
		c-0.1-30.6-20.5-55.2-50.5-61.2c-29.5-5.8-60.3,12.8-68.7,42c-1.8,6.2-2.5,12.8-2.9,19.3c-0.5,6.7-0.1,13.5-0.1,20.6
		c9.9,0,19.6,0,29.7,0c0-6.9-0.1-13.8,0-20.7c0.2-11.4,4.5-20.8,14.4-26.8c10.4-6.4,21.5-6.3,32.1-0.5c10.6,5.7,16.2,15,16.3,27.1
		c0.2,13.5,0,26.9,0,40.4C2825.3,1454.7,2825.3,1456.1,2825.3,1457.7z"/>
</g>
<g id="XMLID_269_">
	<path id="XMLID_270_" class="st11" d="M1303.5,790.3c0,0-49.9,7.1-78.6,20.8c-28.2,13.5-80.3,68.4-106,153.4
		c0,0,18.4,67.3,125.7,91.8c53.6,12.2,78.6-115.1,78.6-115.1L1303.5,790.3z"/>
</g>
</svg>
