<svg xmlns="http://www.w3.org/2000/svg" viewBox="0 0 445.5 338.92"><defs><style>.cls-1{fill:#51b599;}.cls-2{fill:#ed9564;}.cls-3{fill:#e88452;}.cls-4{fill:#f2a775;}.cls-5{fill:#fffdff;}.cls-6{fill:#e5e5e5;}.cls-7{fill:#d37946;}.cls-8{fill:#fff;}.cls-9{fill:#070507;}.cls-10{fill:#184e77;}</style></defs><g id="Back_Clip" data-name="Back Clip"><path id="back_clip-2" data-name="back clip" class="cls-1" d="M412.363,143.585c-32.3-13.145-57.656,4.468-90.225,16.584a10.7,10.7,0,0,0-.3-2.859c-1.259-4-4.6-12.926-2.328-11.736l2.268,1.19s1.758-8.847-3-12.486-5.785-7.667-6.544-11.445-9.821-8.317-13.348-7.058-6.8-7.057-15.615-7.567-10.58.51-14.356-3-14.107-1.509-18.893,0a30.4,30.4,0,0,0-8.612,4.539s2.069-4.929,6.345-6.5a29.153,29.153,0,0,0-15.8,7.737s.19-3.529,2.458-5a24.726,24.726,0,0,0-14.856,5.538c-7.3,5.8-8.312,10.456-13.1,12.915s-11.369,14.5-13.637,20.8c-.33.91-.629,1.859-.909,2.839-83.612-29.759-118.3-11.136-144.225,8.657-28.263,21.572-27.634,82.729-13.1,109.4,15.935,29.228,30.721,54.829,55.947,74.971a256.441,256.441,0,0,0,161.848,55.629c60.323-.51,115.322-23.691,159.94-61.537,22.818-19.252,34.537-40.984,51.472-76.131C478.041,229.612,471.917,167.826,412.363,143.585Z" transform="translate(-24.75 -103.25)"/></g><g id="icon"><g id="Me"><g id="Face"><g id="neck"><path class="cls-2" d="M290.1,286.8s-1.5-8.4,1.4-14.5h-1.7l-21,6.7-18,4.3-30.1-10.8-9.1-3.8c2.8,7.7,1.1,17.1,1.1,17.1L205.8,306l12.1,32.4,50.7,2.3,27.3-24.6-1.5-23.7Z" transform="translate(-24.75 -103.25)"/><path class="cls-3" d="M211.2,268.1s9.4,21.5,12.2,26.2c5.4,9.3,43.7,12.8,51.8,4,3-3.3,16.4-25.5,16.4-25.5Z" transform="translate(-24.75 -103.25)"/></g><path class="cls-4" d="M300.048,151.076a4.8,4.8,0,0,1-3.8-5.283L269.6,135s-40.4,1.3-41.7,2.8-31.7,27-31.7,27l5.7,44.9,1.3,34.9,1.8,6.3,5.8,14.2,5.8,4.8,6.2,3.8,10.1,3.8,6.2,3h14.6l23-2.1,17.2-12.6,7-11.4,3.3-11.1,6.5-34.2,2.7-33Z" transform="translate(-24.75 -103.25)"/><g id="teeth"><polygon class="cls-5" points="206.85 138.45 208.15 140.45 215.55 144.85 242.65 145.45 250.45 140.15 246.65 137.25 236.45 134.95 224.55 134.95 210.75 135.85 206.85 138.45"/><path class="cls-6" d="M231.8,241.8a13.65,13.65,0,0,0,1.7,1.7c.4.2,12.2-.8,13-.5s15.5.8,16,.5,7.8.9,9.1,1.3a4.163,4.163,0,0,0,2.7,0l-.6-3s-4.4-.9-5.1-1.8a18.924,18.924,0,0,0-3.8-2.7c-.2-.1-6.8-1-7-1H246.2l-6.9,1-4.5,1.7-2.5,1.6Z" transform="translate(-24.75 -103.25)"/></g><g id="Lips"><path class="cls-7" d="M230.9,241.7s-.1,1,2.7.2,9.3-3.8,14.7-2,12.1.9,15.1.3c3.5-.8,9.5,4.2,11.6,4.1a1.512,1.512,0,0,0,1.7-1.4,1.7,1.7,0,0,0-.1-.7l.9-3.7-9.3-4-8.6-2.4s-8.6-1-8.8-1.2-7.8,1.8-7.8,1.8l-9.5,1.6-5.7,3.8,1.5,2.9Z" transform="translate(-24.75 -103.25)"/><path class="cls-7" d="M252.3,254.6s-7.2.1-9.7-.7c-5.1-1.6-11.8-12.2-11.8-12.2l1.3.5s3.1,2.6,4.5,2.8,13.9.6,16.4,1.1l.9.1c2.6-.5,13.1.1,14.5-.2a27.063,27.063,0,0,0,5.2-2.4l3-.5s-6.1,7.6-9.7,9.5-14,1.9-14,1.9Z" transform="translate(-24.75 -103.25)"/></g><g id="blink_R" data-name="blink R"><path d="M269.9,200.5a37.6,37.6,0,0,1,6.7.3c1.1.1,2.2.3,3.3.4s2.1.3,3.2.4,2.1.1,3.2.1,2.2-.1,3.2-.1a20.419,20.419,0,0,0,6.4-1.4,13.152,13.152,0,0,1-6.2,2.9c-1.1.2-2.2.4-3.4.5a20.454,20.454,0,0,1-3.5,0c-1.1-.1-2.3-.3-3.4-.5s-2.2-.5-3.3-.8C274.2,201.8,272.1,201.2,269.9,200.5Z" transform="translate(-24.75 -103.25)"/></g><g id="eye_R" data-name="eye R"><path d="M268.1,197.7c2.5-1.6,4.2-3.9,6.6-5.6a11.8,11.8,0,0,1,4-1.7,16.074,16.074,0,0,1,4.4-.2,17.363,17.363,0,0,1,8.3,2.4,12.665,12.665,0,0,1,3.4,2.7,10.7,10.7,0,0,0,1.6,1.4,3.128,3.128,0,0,0,1,.5,1.7,1.7,0,0,0,1,0,1.183,1.183,0,0,1-1,.1,3.128,3.128,0,0,1-1-.5,7.456,7.456,0,0,1-1.7-1.4,14.812,14.812,0,0,0-3.5-2.5,19.657,19.657,0,0,0-4-1.6,15.225,15.225,0,0,0-4.2-.6,20.667,20.667,0,0,0-4.3.2,11.1,11.1,0,0,0-3.9,1.6,21.584,21.584,0,0,0-3.3,2.7C270.5,196,269.3,196.9,268.1,197.7Z" transform="translate(-24.75 -103.25)"/><polygon class="cls-8" points="245.35 96.65 249.35 92.15 251.85 90.65 259.75 90.65 263.85 91.45 267.05 93.45 269.95 96.95 269.55 97.65 268.65 98.05 265.85 98.95 263.65 99.25 259.15 99.25 256.65 98.65 254.85 98.45 251.05 97.75 248.55 97.35 245.35 97.25 245.35 96.65"/><path d="M285.9,203c-.9,0-1.8-.1-2.8-.2-1.7-.3-3.5-.6-5.1-.8-4.1-.7-7.6-1-8.5-1.1-.2,0-.3,0-.3-.2s0-.3.2-.4c1-.3,4.4.3,8.7,1,1.7.3,3.4.6,5.1.8a22.6,22.6,0,0,0,11.5-1.6c.1-.1.3,0,.3.2s0,.3-.2.4A24.027,24.027,0,0,1,285.9,203Z" transform="translate(-24.75 -103.25)"/><path d="M268.1,200.9c1.1-.1,5.6-7.2,7.6-8s11.8-.6,14.2.6c2.1,1.1,6.2,6.4,8,7.4.1.1.1.2,0,.2h-3.5s-3.7-5.2-5.6-5.8-10.1-1.4-12.1-.8-5.3,4-5.8,4.6a10.93,10.93,0,0,0-.8,1.5Z" transform="translate(-24.75 -103.25)"/><ellipse class="cls-9" cx="257.65" cy="94.95" rx="4.5" ry="3.5"/><ellipse class="cls-8" cx="255.45" cy="93.45" rx="1.5" ry="1"/><circle class="cls-8" cx="257.45" cy="94.95" r="0.5"/></g><g id="blink_L" data-name="blink L"><path d="M244.1,199.5c-2.1.8-4.3,1.4-6.4,2-1.1.3-2.1.6-3.2.9a34.306,34.306,0,0,1-3.4.6c-1.2.1-2.3.1-3.5.1a9.852,9.852,0,0,1-1.7-.2c-.6-.1-1.2-.2-1.7-.3a15.166,15.166,0,0,1-6-3.2,27.991,27.991,0,0,0,6.3,1.7,8.6,8.6,0,0,0,1.6.1h1.6a17.2,17.2,0,0,0,3.2-.2c2.1-.2,4.3-.7,6.5-1A30.27,30.27,0,0,1,244.1,199.5Z" transform="translate(-24.75 -103.25)"/></g><g id="eye_L" data-name="eye L"><path d="M245.8,197.3c-2.5-1.6-4.2-3.9-6.6-5.6a11.8,11.8,0,0,0-4-1.7,16.074,16.074,0,0,0-4.4-.2,18.441,18.441,0,0,0-8.3,2.3,12.665,12.665,0,0,0-3.4,2.7,10.7,10.7,0,0,1-1.6,1.4,3.128,3.128,0,0,1-1,.5,1.7,1.7,0,0,1-1,0,1.376,1.376,0,0,0,1.1.1,10.375,10.375,0,0,0,1-.4,7.456,7.456,0,0,0,1.7-1.4,14.812,14.812,0,0,1,3.5-2.5,19.657,19.657,0,0,1,4-1.6,15.225,15.225,0,0,1,4.2-.6,20.667,20.667,0,0,1,4.3.2,9.7,9.7,0,0,1,3.9,1.7,21.584,21.584,0,0,1,3.3,2.7A17.573,17.573,0,0,0,245.8,197.3Z" transform="translate(-24.75 -103.25)"/><polygon class="cls-8" points="219.05 96.35 214.95 91.85 212.55 90.35 204.65 90.35 200.45 91.05 197.25 93.15 194.45 96.55 194.85 97.25 195.65 97.75 198.55 98.55 200.75 98.95 205.25 98.95 207.75 98.35 209.55 98.05 213.35 97.35 215.85 97.05 219.05 96.85 219.05 96.35"/><path d="M228,202.6c.9,0,1.8-.1,2.8-.2,1.7-.3,3.5-.6,5.1-.9,4.1-.7,7.6-1,8.5-1.1.2,0,.3,0,.3-.2s0-.3-.2-.4c-1-.3-4.4.3-8.7,1-1.7.3-3.4.6-5.1.8a22.6,22.6,0,0,1-11.5-1.6c-.1,0-.3,0-.3.1v.1c-.1.2,0,.3.1.4A21.488,21.488,0,0,0,228,202.6Z" transform="translate(-24.75 -103.25)"/><path d="M245.8,200.6c-1.1-.1-5.6-7.2-7.6-7.9s-11.8-.6-14.2.6c-2.1,1.1-6.2,6.4-7.9,7.4-.1.1-.1.2,0,.2h3.5s3.8-5.2,5.6-5.8,10.1-1.4,12.1-.8,5.3,4,5.8,4.6a10.93,10.93,0,0,1,.8,1.5Z" transform="translate(-24.75 -103.25)"/><ellipse class="cls-9" cx="206.75" cy="94.65" rx="4.6" ry="3.5"/><ellipse class="cls-8" cx="208.95" cy="93.15" rx="1.5" ry="1"/><circle class="cls-8" cx="206.95" cy="94.55" r="0.5"/></g><path id="Eyebrow_R" data-name="Eyebrow R" d="M299.7,187.2a20.515,20.515,0,0,0-14-4.9c-4.7.1-14.1,3.4-17,4.5a1.274,1.274,0,0,1-1.5-.4c-1-1.1-2.8-3-2.1-4.2.9-1.6,9.1-4.4,13.2-4.7a28.212,28.212,0,0,1,13.5,1.7c4.9,2,8,6.4,8.1,7S299.9,187.3,299.7,187.2Z" transform="translate(-24.75 -103.25)"/><path id="Eyebrow_L" data-name="Eyebrow L" d="M214.1,187.2a20.515,20.515,0,0,1,14-4.9c4.7.1,14.1,3.4,17,4.5a1.274,1.274,0,0,0,1.5-.4c1-1.1,2.8-3,2.1-4.2-.9-1.6-9.1-4.4-13.2-4.7a28.775,28.775,0,0,0-13.6,1.7c-4.9,2-8,6.4-8.1,7S214,187.3,214.1,187.2Z" transform="translate(-24.75 -103.25)"/><path id="nose" class="cls-7" d="M244,222.3a3.506,3.506,0,0,1,1.4-.6,8.6,8.6,0,0,1,1.6-.1,10.657,10.657,0,0,1,3.1.6,6.109,6.109,0,0,1,1.4.7c.2.1.4.3.7.5.2.1.4.3.6.4a6.644,6.644,0,0,0,2.7.9,7.083,7.083,0,0,0,2.9,0,7.366,7.366,0,0,0,1.4-.4c.2-.1.5-.2.7-.3l.3-.2.4-.2a7.611,7.611,0,0,1,3-1h1.6a4.191,4.191,0,0,1,1.5.4,3.812,3.812,0,0,0-1.5-.1,9.119,9.119,0,0,0-4.2,1.4l-.3.2-.4.2c-.2.1-.5.3-.7.4a7.494,7.494,0,0,1-1.6.5,11.563,11.563,0,0,1-3.2.1,8.864,8.864,0,0,1-3.1-1.1,3.039,3.039,0,0,1-.7-.5,2.092,2.092,0,0,0-.6-.4,5.388,5.388,0,0,0-1.3-.7,13.087,13.087,0,0,0-2.8-.9,7.569,7.569,0,0,0-1.5-.1A1.9,1.9,0,0,0,244,222.3Z" transform="translate(-24.75 -103.25)"/><g id="Ear_R" data-name="Ear R"><path class="cls-4" d="M309.1,210.5s4.6-7.2,8.2-6.1,6.4,7.6,0,18.8-5.3,14.2-6.3,18-8,3.9-7.4.7-3.8-19.4-1.8-22.9S310,211,309.1,210.5Z" transform="translate(-24.75 -103.25)"/><path class="cls-7" d="M310.3,217.4l1.5-3a17.482,17.482,0,0,1,1.8-2.9A8.158,8.158,0,0,1,316,209a1.486,1.486,0,0,1,.9-.2c.3.1.6.1.8.3l1.5.6-1.6-.3a2.2,2.2,0,0,0-.8-.1.713.713,0,0,0-.6.3,7.246,7.246,0,0,0-1.8,2.5,44.892,44.892,0,0,0-2.3,6.1h0a1.086,1.086,0,0,1-1.2.7,1.285,1.285,0,0,1-.6-1.5Z" transform="translate(-24.75 -103.25)"/></g><g id="Ear_L" data-name="Ear L"><path class="cls-4" d="M201.9,209.8s-4.1-6.9-7.9-6.4-6.7,5.8-2,17.1,3.3,13.9,3.7,17.6,7.4,4.6,7.2,1.6,6.4-17.6,4.9-21.2S201,210.1,201.9,209.8Z" transform="translate(-24.75 -103.25)"/><path class="cls-7" d="M199.4,217.1a44.892,44.892,0,0,0-2.3-6.1,9.314,9.314,0,0,0-1.8-2.6c-.2-.2-.4-.2-.6-.3-.3,0-.5.1-.8.1l-1.6.3c.4-.2,1-.4,1.5-.6a6.89,6.89,0,0,0,.8-.3,2.92,2.92,0,0,1,.9.2,7.184,7.184,0,0,1,2.4,2.5c.6.9,1.2,1.9,1.8,2.9s1.1,2,1.6,3a.992.992,0,0,1-.5,1.3h0a.992.992,0,0,1-1.3-.5h0l-.1.1Z" transform="translate(-24.75 -103.25)"/></g><g id="Beard"><path class="cls-9" d="M304.3,243.4s-6.7,18.5-12,20.6c-5,2-4.9,1.9-6.4,2.8s-2.4,3.6-3.1,3.4,1.5-2.3.7-2.1-6.4,5.5-10.8,5.9-13.7-4.4-14.8-5,.9,3,1.3,3.7-1.8-.4-2.7-2a2.356,2.356,0,0,0-2.4-1.2,2.036,2.036,0,0,0-2,1.2c-1,1.5-3.1,2.6-2.7,2s2.4-4.4,1.3-3.7-7,5.4-11.4,5-10.1-5.8-10.8-5.9,1.4,1.9.7,2.1-1.6-2.5-3.1-3.4-.8,3-6.2,2.3S203,240.3,203,240.3s.5,28.9,19.7,37.9,19.3,8.8,21,9.6,9.8,1.4,9.8,1.4c1.1,0,7,.1,10.6-1.3,1.7-.7,3.4.4,21.5-10.4C302,267.8,304.3,243.4,304.3,243.4Z" transform="translate(-24.75 -103.25)"/><path class="cls-9" d="M262.2,256.7a39.75,39.75,0,0,1-17.5,0c-.8.3-1.3.6-.9,1.3s4.3,5.3,6.9,5.4l2.7.1h0l2.7-.1c2.7-.1,6.6-4.7,7-5.4S263,257,262.2,256.7Z" transform="translate(-24.75 -103.25)"/><path id="moustache" class="cls-9" d="M255.6,231.2c-3.2.1-9.2-2-11.5-1.4s-7.5,2.5-8.9,3.5-4.7,1.3-4.7.6-1.9,0-4.8,3.6c-3.1,3.9-.9,5.6-.2,6.1s1.9.9,5.1-1.8c0,0,4.1-5.3,9.9-6s19.9-.2,25,.6,10.9,6.3,10.9,6.3c3.1,2.7,4.5,3,5.2,2.5s4.6-1.6,1.2-5.2-6-5.4-5.9-4.5c.1.8-2,.7-3.2-.3s-4.4-4.3-6.7-4.9-8.2,1-11.4.9" transform="translate(-24.75 -103.25)"/></g><path id="Hair" class="cls-9" d="M201.9,209.8c.2,2.8-1.4-24.4.6-26.9s16.1-13.7,19.7-24.3,27.9-14.7,35-14.6,24.7-2.3,31,9.6,9.9,16.8,16.1,22.7,6.2,35.3,6.2,35.3,4.9-6.4,5.8-7.2.6-10.3,2.3-17.1c1.6-6.6,4.7-25.8,3.4-29.8s-4.6-12.9-2.3-11.7L322,147s1.8-8.9-3-12.5-5.8-7.7-6.6-11.4-9.8-8.3-13.4-7.1-6.8-7.1-15.6-7.6-10.6.5-14.4-3-14.1-1.5-18.9,0a30.7,30.7,0,0,0-8.6,4.5s2.1-4.9,6.4-6.5a28.908,28.908,0,0,0-15.8,7.8s.2-3.5,2.4-5a24.712,24.712,0,0,0-14.9,5.6c-7.3,5.8-8.3,10.4-13.1,12.9S195.3,139,193,145.3s-3.5,14.9-2,18.9,2.2,39.5,3.5,40.6S201.9,208.5,201.9,209.8Z" transform="translate(-24.75 -103.25)"/></g><path id="Shirt" class="cls-10" d="M429.986,358.916c-49,51.215-109.534,82.431-175.892,83.242-64.6.675-127.443-25.811-177.98-75.269l47.132-42.3c28.125-12.567,73.609-20.675,73.609-20.675l13.293-12.162s-1.538,10.54.33,17.432,15.381,19.729,15.381,19.729l-2.308,17.838.44,2.3,1.868-1.081,7.031-17.432a161.308,161.308,0,0,0,32.19,2.838c18.457-.271,29.114-17.838,30.762-24.73s-.549-15.54-.549-15.54l14.722,10.676s36.255,11.081,63.721,21.08Z" transform="translate(-24.75 -103.25)"/></g></g></svg>